<?xml version="1.0" encoding="UTF-8" standalone="no"?>
<!-- Created with Inkscape (http://www.inkscape.org/) -->

<svg
   xmlns:dc="http://purl.org/dc/elements/1.1/"
   xmlns:cc="http://creativecommons.org/ns#"
   xmlns:rdf="http://www.w3.org/1999/02/22-rdf-syntax-ns#"
   xmlns:svg="http://www.w3.org/2000/svg"
   xmlns="http://www.w3.org/2000/svg"
   xmlns:sodipodi="http://sodipodi.sourceforge.net/DTD/sodipodi-0.dtd"
   xmlns:inkscape="http://www.inkscape.org/namespaces/inkscape"
   id="svg2"
   version="1.1"
   inkscape:version="0.48.4 r9939"
   width="896.69043"
   height="869.77411"
   xml:space="preserve"
   sodipodi:docname="supplementary_figure_1.svg"><metadata
     id="metadata8"><rdf:RDF><cc:Work
         rdf:about=""><dc:format>image/svg+xml</dc:format><dc:type
           rdf:resource="http://purl.org/dc/dcmitype/StillImage" /><dc:title /></cc:Work></rdf:RDF></metadata><defs
     id="defs6"><clipPath
       clipPathUnits="userSpaceOnUse"
       id="clipPath18"><path
         d="m 49,420.96 285.9,0 0,250.04 -285.9,0 0,-250.04 z"
         id="path20"
         inkscape:connector-curvature="0" /></clipPath><clipPath
       clipPathUnits="userSpaceOnUse"
       id="clipPath96"><path
         d="m 0,360 360,0 0,360 -360,0 0,-360 z"
         id="path98"
         inkscape:connector-curvature="0" /></clipPath><clipPath
       clipPathUnits="userSpaceOnUse"
       id="clipPath116"><path
         d="m 49,420.96 285.9,0 0,250.04 -285.9,0 0,-250.04 z"
         id="path118"
         inkscape:connector-curvature="0" /></clipPath><clipPath
       clipPathUnits="userSpaceOnUse"
       id="clipPath128"><path
         d="m 409,420.96 285.9,0 0,250.04 -285.9,0 0,-250.04 z"
         id="path130"
         inkscape:connector-curvature="0" /></clipPath><clipPath
       clipPathUnits="userSpaceOnUse"
       id="clipPath136"><path
         d="m 409,420.96 285.9,0 0,250.04 -285.9,0 0,-250.04 z"
         id="path138"
         inkscape:connector-curvature="0" /></clipPath><clipPath
       clipPathUnits="userSpaceOnUse"
       id="clipPath214"><path
         d="m 360,360 360,0 0,360 -360,0 0,-360 z"
         id="path216"
         inkscape:connector-curvature="0" /></clipPath><clipPath
       clipPathUnits="userSpaceOnUse"
       id="clipPath234"><path
         d="m 409,420.96 285.9,0 0,250.04 -285.9,0 0,-250.04 z"
         id="path236"
         inkscape:connector-curvature="0" /></clipPath><clipPath
       clipPathUnits="userSpaceOnUse"
       id="clipPath246"><path
         d="m 49,60.96 285.9,0 0,250.04 L 49,311 49,60.96 z"
         id="path248"
         inkscape:connector-curvature="0" /></clipPath><clipPath
       clipPathUnits="userSpaceOnUse"
       id="clipPath254"><path
         d="m 49,60.96 285.9,0 0,250.04 L 49,311 49,60.96 z"
         id="path256"
         inkscape:connector-curvature="0" /></clipPath><clipPath
       clipPathUnits="userSpaceOnUse"
       id="clipPath326"><path
         d="M 0,0 360,0 360,360 0,360 0,0 z"
         id="path328"
         inkscape:connector-curvature="0" /></clipPath><clipPath
       clipPathUnits="userSpaceOnUse"
       id="clipPath346"><path
         d="m 49,60.96 285.9,0 0,250.04 L 49,311 49,60.96 z"
         id="path348"
         inkscape:connector-curvature="0" /></clipPath><clipPath
       clipPathUnits="userSpaceOnUse"
       id="clipPath358"><path
         d="m 409,60.96 285.9,0 0,250.04 -285.9,0 0,-250.04 z"
         id="path360"
         inkscape:connector-curvature="0" /></clipPath><clipPath
       clipPathUnits="userSpaceOnUse"
       id="clipPath366"><path
         d="m 409,60.96 285.9,0 0,250.04 -285.9,0 0,-250.04 z"
         id="path368"
         inkscape:connector-curvature="0" /></clipPath><clipPath
       clipPathUnits="userSpaceOnUse"
       id="clipPath444"><path
         d="m 360,0 360,0 0,360 -360,0 0,-360 z"
         id="path446"
         inkscape:connector-curvature="0" /></clipPath><clipPath
       clipPathUnits="userSpaceOnUse"
       id="clipPath464"><path
         d="m 409,60.96 285.9,0 0,250.04 -285.9,0 0,-250.04 z"
         id="path466"
         inkscape:connector-curvature="0" /></clipPath></defs><sodipodi:namedview
     pagecolor="#ffffff"
     bordercolor="#666666"
     borderopacity="1"
     objecttolerance="10"
     gridtolerance="10"
     guidetolerance="10"
     inkscape:pageopacity="0"
     inkscape:pageshadow="2"
     inkscape:window-width="1865"
     inkscape:window-height="1176"
     id="namedview4"
     showgrid="false"
     fit-margin-top="0"
     fit-margin-left="0"
     fit-margin-right="0"
     fit-margin-bottom="0"
     inkscape:zoom="0.74167644"
     inkscape:cx="766.25203"
     inkscape:cy="673.72106"
     inkscape:window-x="55"
     inkscape:window-y="24"
     inkscape:window-maximized="1"
     inkscape:current-layer="g10" /><g
     id="g10"
     inkscape:groupmode="layer"
     inkscape:label="supplementary_figure_1"
     transform="matrix(1.25,0,0,-1.25,-4.3375,908.01159)"><g
       id="g12" /><path
       inkscape:connector-curvature="0"
       d="m 59.59,661.74 1.33,-13.67 1.33,-7.29 1.33,-6.2 1.33,-5.2 1.33,-3.99 1.33,-2.89 1.33,-2.16 1.33,-1.68 1.33,-1.42 1.33,-1.12 1.33,-0.91 1.34,-0.7 1.33,-0.53 1.33,-0.42 1.33,-0.37 1.33,-0.38 1.33,-0.43 1.33,-0.52 1.33,-0.6 1.33,-0.7 1.33,-0.71 1.33,-0.7 1.33,-0.6 1.33,-0.48 1.33,-0.29 1.33,-0.12 1.33,0.04 1.33,0.18 1.33,0.23 1.33,0.21 1.33,0.19 1.33,0.12 1.33,0.02 1.33,-0.07 1.33,-0.25 1.33,-0.36 1.33,-0.51 1.33,-0.68 1.33,-0.8 1.33,-0.97 1.33,-1.11 1.33,-1.28 1.33,-1.36 1.33,-1.48 1.33,-1.61 1.33,-1.73 1.33,-1.8 1.33,-1.85 1.33,-1.89 1.33,-1.89 1.33,-1.83 1.34,-1.7 1.33,-1.58 1.33,-1.37 1.33,-1.17 1.33,-0.98 1.33,-0.64 1.33,-0.51 1.33,-0.34 1.33,-0.17 1.33,-0.15 1.33,-0.04 1.33,-0.04 1.33,-0.08 1.33,-0.07 1.33,0 1.33,-0.14 1.33,-0.18 1.33,-0.2 1.33,-0.28 1.33,-0.3 1.33,-0.35 1.33,-0.43 1.33,-0.43 1.33,-0.54 1.33,-0.56 1.33,-0.61 1.33,-0.71 1.33,-0.68 1.33,-0.75 1.33,-0.81 1.33,-0.79 1.33,-0.86 1.33,-0.84 1.33,-1.01 1.33,-0.99 1.33,-1.04 1.33,-1.02 1.33,-1.03 1.33,-1.06 1.33,-1.1 1.34,-1.03 1.33,-1.13 1.33,-0.93 1.33,-1.08 1.33,-1.16 1.33,-0.92 1.33,-1.04 1.33,-0.96 1.33,-1 1.33,-1.06 1.33,-0.85 1.33,-0.77 1.33,-0.92 1.33,-0.96 1.33,-0.68 1.33,-0.8 1.33,-0.69 1.33,-0.7 1.33,-0.44 1.33,-0.47 1.33,-0.69 1.33,-0.47 1.33,-0.53 1.33,-0.38 1.33,-0.46 1.33,-0.28 1.33,-0.58 1.33,-0.37 1.33,-0.27 1.33,-0.28 1.33,0.1 1.33,-0.38 1.33,-0.36 1.33,-0.24 1.33,-0.27 1.33,-0.48 1.33,0 1.33,-0.13 1.33,-0.42 1.33,0.22 1.34,-0.6 1.33,0.15 1.33,-0.41 1.33,-0.22 1.33,-0.07 1.33,-0.14 1.33,-0.43 1.33,-0.07 1.33,-0.22 1.33,-0.08 1.33,-0.07 1.33,-0.33 1.33,-0.26 1.33,-0.13 1.33,-0.65 1.33,0.2 1.33,-0.86 1.33,0.23 1.33,-0.61 1.33,-0.57 1.33,0.32 1.33,-0.42 1.33,-0.11 1.33,-0.08 1.33,-0.73 1.33,-0.01 1.33,-0.36 1.33,-0.09 1.33,-0.09 1.33,-0.28 1.33,-0.15 1.33,-0.22 1.33,0.06 1.33,-0.87 1.33,0.01 1.33,-0.25 1.33,-0.23 1.33,-0.21 1.33,-0.26 1.33,-0.07 1.34,-0.28 1.33,-0.36 1.33,-0.13 1.33,-0.16 1.33,-0.42 1.33,0.13 1.33,-0.33 1.33,-0.26 1.33,0.03 1.33,-0.32 1.33,-0.48 1.33,-0.42 1.33,0.37 1.33,-0.56 1.33,0.04 1.33,-0.01 1.33,-0.04 1.33,-0.72 1.33,-0.21 1.33,-0.12 1.33,0.11 1.33,-0.48 1.33,-0.52 1.33,-0.05 1.33,-0.15 1.33,0.1 1.33,0.02 1.33,-0.41 1.33,0.07 1.33,-0.13 1.33,-0.59 1.33,0.47 1.33,-0.33 1.33,0.23 1.33,-0.28"
       style="fill:none;stroke:#000000;stroke-width:1.5;stroke-linecap:round;stroke-linejoin:round;stroke-miterlimit:10;stroke-opacity:1;stroke-dasharray:none"
       id="path22"
       sodipodi:nodetypes="ccccccccccccccccccccccccccccccccccccccccccccccccccccccccccccccccccccccccccccccccccccccccccccccccccccccccccccccccccccccccccccccccccccccccccccccccccccccccccccccccccccccccccccccccccccccccccccccccccccccccccccccc" /><path
       id="path26"
       style="fill:none;stroke:#000000;stroke-width:0.75;stroke-linecap:round;stroke-linejoin:round;stroke-miterlimit:10;stroke-opacity:1;stroke-dasharray:none"
       d="m 58.26,420.96 266.05,0"
       inkscape:connector-curvature="0" /><path
       id="path28"
       style="fill:none;stroke:#000000;stroke-width:0.75;stroke-linecap:round;stroke-linejoin:round;stroke-miterlimit:10;stroke-opacity:1;stroke-dasharray:none"
       d="m 58.26,420.96 0,-5.98"
       inkscape:connector-curvature="0" /><path
       id="path30"
       style="fill:none;stroke:#000000;stroke-width:0.75;stroke-linecap:round;stroke-linejoin:round;stroke-miterlimit:10;stroke-opacity:1;stroke-dasharray:none"
       d="m 124.77,420.96 0,-5.98"
       inkscape:connector-curvature="0" /><path
       id="path32"
       style="fill:none;stroke:#000000;stroke-width:0.75;stroke-linecap:round;stroke-linejoin:round;stroke-miterlimit:10;stroke-opacity:1;stroke-dasharray:none"
       d="m 191.29,420.96 0,-5.98"
       inkscape:connector-curvature="0" /><path
       id="path34"
       style="fill:none;stroke:#000000;stroke-width:0.75;stroke-linecap:round;stroke-linejoin:round;stroke-miterlimit:10;stroke-opacity:1;stroke-dasharray:none"
       d="m 257.8,420.96 0,-5.98"
       inkscape:connector-curvature="0" /><path
       id="path36"
       style="fill:none;stroke:#000000;stroke-width:0.75;stroke-linecap:round;stroke-linejoin:round;stroke-miterlimit:10;stroke-opacity:1;stroke-dasharray:none"
       d="m 324.31,420.96 0,-5.98"
       inkscape:connector-curvature="0" /><text
       id="text38"
       transform="scale(1,-1)"
       x="55.48"
       y="-399.44"><tspan
         id="tspan40"
         y="-399.44"
         x="55.48"
         style="font-size:10px;font-variant:normal;font-weight:normal;writing-mode:lr-tb;fill:#000000;fill-opacity:1;fill-rule:nonzero;stroke:none;font-family:Helvetica;-inkscape-font-specification:Helvetica">0</tspan></text>
<text
       id="text42"
       transform="scale(1,-1)"
       x="119.21"
       y="-399.44"><tspan
         id="tspan44"
         sodipodi:role="line"
         y="-399.44"
         x="119.21 124.77"
         style="font-size:10px;font-variant:normal;font-weight:normal;writing-mode:lr-tb;fill:#000000;fill-opacity:1;fill-rule:nonzero;stroke:none;font-family:Helvetica;-inkscape-font-specification:Helvetica">50</tspan></text>
<text
       id="text46"
       transform="scale(1,-1)"
       x="182.95"
       y="-399.44"><tspan
         id="tspan48"
         sodipodi:role="line"
         y="-399.44"
         x="182.95 188.50999 194.07001"
         style="font-size:10px;font-variant:normal;font-weight:normal;writing-mode:lr-tb;fill:#000000;fill-opacity:1;fill-rule:nonzero;stroke:none;font-family:Helvetica;-inkscape-font-specification:Helvetica">100</tspan></text>
<text
       id="text50"
       transform="scale(1,-1)"
       x="249.46001"
       y="-399.44"><tspan
         id="tspan52"
         sodipodi:role="line"
         y="-399.44"
         x="249.46001 255.02 260.57999"
         style="font-size:10px;font-variant:normal;font-weight:normal;writing-mode:lr-tb;fill:#000000;fill-opacity:1;fill-rule:nonzero;stroke:none;font-family:Helvetica;-inkscape-font-specification:Helvetica">150</tspan></text>
<text
       id="text54"
       transform="scale(1,-1)"
       x="315.97"
       y="-399.44"><tspan
         id="tspan56"
         sodipodi:role="line"
         y="-399.44"
         x="315.97 321.53 327.09"
         style="font-size:10px;font-variant:normal;font-weight:normal;writing-mode:lr-tb;fill:#000000;fill-opacity:1;fill-rule:nonzero;stroke:none;font-family:Helvetica;-inkscape-font-specification:Helvetica">200</tspan></text>
<path
       id="path58"
       style="fill:none;stroke:#000000;stroke-width:0.75;stroke-linecap:round;stroke-linejoin:round;stroke-miterlimit:10;stroke-opacity:1;stroke-dasharray:none"
       d="m 49,430.22 0,218.4"
       inkscape:connector-curvature="0" /><path
       id="path60"
       style="fill:none;stroke:#000000;stroke-width:0.75;stroke-linecap:round;stroke-linejoin:round;stroke-miterlimit:10;stroke-opacity:1;stroke-dasharray:none"
       d="m 49,430.22 -5.97,0"
       inkscape:connector-curvature="0" /><path
       id="path62"
       style="fill:none;stroke:#000000;stroke-width:0.75;stroke-linecap:round;stroke-linejoin:round;stroke-miterlimit:10;stroke-opacity:1;stroke-dasharray:none"
       d="m 49,484.82 -5.97,0"
       inkscape:connector-curvature="0" /><path
       id="path64"
       style="fill:none;stroke:#000000;stroke-width:0.75;stroke-linecap:round;stroke-linejoin:round;stroke-miterlimit:10;stroke-opacity:1;stroke-dasharray:none"
       d="m 49,539.42 -5.97,0"
       inkscape:connector-curvature="0" /><path
       id="path66"
       style="fill:none;stroke:#000000;stroke-width:0.75;stroke-linecap:round;stroke-linejoin:round;stroke-miterlimit:10;stroke-opacity:1;stroke-dasharray:none"
       d="m 49,594.02 -5.97,0"
       inkscape:connector-curvature="0" /><path
       id="path68"
       style="fill:none;stroke:#000000;stroke-width:0.75;stroke-linecap:round;stroke-linejoin:round;stroke-miterlimit:10;stroke-opacity:1;stroke-dasharray:none"
       d="m 49,648.62 -5.97,0"
       inkscape:connector-curvature="0" /><text
       id="text70"
       transform="matrix(0,1,1,0,0,0)"
       x="416.17999"
       y="34.66"><tspan
         id="tspan72"
         sodipodi:role="line"
         y="34.66"
         x="416.17999 421.73999 427.29999 433.13998 438.70001"
         style="font-size:10px;font-variant:normal;font-weight:normal;writing-mode:lr-tb;fill:#000000;fill-opacity:1;fill-rule:nonzero;stroke:none;font-family:Helvetica;-inkscape-font-specification:Helvetica">1e+00</tspan></text>
<text
       id="text74"
       transform="matrix(0,1,1,0,0,0)"
       x="470.78"
       y="34.66"><tspan
         id="tspan76"
         sodipodi:role="line"
         y="34.66"
         x="470.78 476.34 481.89999 487.73999 493.29999"
         style="font-size:10px;font-variant:normal;font-weight:normal;writing-mode:lr-tb;fill:#000000;fill-opacity:1;fill-rule:nonzero;stroke:none;font-family:Helvetica;-inkscape-font-specification:Helvetica">1e+02</tspan></text>
<text
       id="text78"
       transform="matrix(0,1,1,0,0,0)"
       x="525.38"
       y="34.66"><tspan
         id="tspan80"
         sodipodi:role="line"
         y="34.66"
         x="525.38 530.94 536.5 542.34003 547.90002"
         style="font-size:10px;font-variant:normal;font-weight:normal;writing-mode:lr-tb;fill:#000000;fill-opacity:1;fill-rule:nonzero;stroke:none;font-family:Helvetica;-inkscape-font-specification:Helvetica">1e+04</tspan></text>
<text
       id="text82"
       transform="matrix(0,1,1,0,0,0)"
       x="579.97998"
       y="34.66"><tspan
         id="tspan84"
         sodipodi:role="line"
         y="34.66"
         x="579.97998 585.53998 591.09998 596.94 602.5"
         style="font-size:10px;font-variant:normal;font-weight:normal;writing-mode:lr-tb;fill:#000000;fill-opacity:1;fill-rule:nonzero;stroke:none;font-family:Helvetica;-inkscape-font-specification:Helvetica">1e+06</tspan></text>
<text
       id="text86"
       transform="matrix(0,1,1,0,0,0)"
       x="634.58002"
       y="34.66"><tspan
         id="tspan88"
         sodipodi:role="line"
         y="34.66"
         x="634.58002 640.14001 645.70001 651.53998 657.09998"
         style="font-size:10px;font-variant:normal;font-weight:normal;writing-mode:lr-tb;fill:#000000;fill-opacity:1;fill-rule:nonzero;stroke:none;font-family:Helvetica;-inkscape-font-specification:Helvetica">1e+08</tspan></text>
<path
       id="path90"
       style="fill:none;stroke:#000000;stroke-width:0.75;stroke-linecap:round;stroke-linejoin:round;stroke-miterlimit:10;stroke-opacity:1;stroke-dasharray:none"
       d="m 49,420.96 285.9,0 0,250.04 -285.9,0 0,-250.04"
       inkscape:connector-curvature="0" /><text
       transform="scale(1,-1)"
       id="text100"
       x="150.88"
       y="-691.19"><tspan
         style="font-size:12px;font-variant:normal;font-weight:bold;writing-mode:lr-tb;fill:#000000;fill-opacity:1;fill-rule:nonzero;stroke:none;font-family:Helvetica;-inkscape-font-specification:Helvetica-Bold"
         x="150.88 157.552 164.224 170.896 174.23199 181.564 188.896 192.23199 199.564 202.89999 210.23199 214.89999 221.57201 226.36"
         y="-691.19"
         sodipodi:role="line"
         id="tspan102">300 bp Library</tspan></text>
<text
       transform="scale(1,-1)"
       id="text104"
       x="155.11"
       y="-375.54001"><tspan
         style="font-size:10px;font-variant:normal;font-weight:normal;writing-mode:lr-tb;fill:#000000;fill-opacity:1;fill-rule:nonzero;stroke:none;font-family:Helvetica;-inkscape-font-specification:Helvetica"
         x="155.11 160.11 165.95 174.28 179.84 183.17 185.95 193.17 198.58 203.33 208.89 212.12 217.67999 223.23999"
         y="-375.54001"
         sodipodi:role="line"
         id="tspan106">k−Mer Coverage</tspan></text>
<text
       transform="matrix(0,1,1,0,0,0)"
       id="text108"
       x="522.35999"
       y="10.76"><tspan
         style="font-size:10px;font-variant:normal;font-weight:normal;writing-mode:lr-tb;fill:#000000;fill-opacity:1;fill-rule:nonzero;stroke:none;font-family:Helvetica;-inkscape-font-specification:Helvetica"
         x="522.35999 528.46997 531.79999 537.35999 542.91998 548.47998 554.03998 559.59998 564.59998"
         y="10.76"
         sodipodi:role="line"
         id="tspan110">Frequency</tspan></text>
<path
       inkscape:connector-curvature="0"
       d="m 59.59,633.17 1.33,-35.86 1.33,-7.58 1.33,-2.94 1.33,-1.26 1.33,0.2 1.33,1.6 1.33,2.58 1.33,3.12 1.33,3.23 1.33,3.09 1.33,2.68 1.34,2.3 1.33,1.81 1.33,1.39 1.33,0.94 1.33,0.57 1.33,0.18 1.33,-0.15 1.33,-0.44 1.33,-0.62 1.33,-0.78 1.33,-0.78 1.33,-0.75 1.33,-0.58 1.33,-0.37 1.33,-0.16 1.33,0.02 1.33,0.12 1.33,0.22 1.33,0.22 1.33,0.14 1.33,0.1 1.33,-0.03 1.33,-0.15 1.33,-0.35 1.33,-0.49 1.33,-0.65 1.33,-0.81 1.33,-0.96 1.33,-1.17 1.33,-1.28 1.33,-1.47 1.33,-1.58 1.33,-1.71 1.33,-1.85 1.33,-2.02 1.33,-2.07 1.33,-2.16 1.33,-2.27 1.33,-2.25 1.33,-2.28 1.34,-2.22 1.33,-2.18 1.33,-2.14 1.33,-1.93 1.33,-1.75 1.33,-1.58 1.33,-1.5 1.33,-1.18 1.33,-1.08 1.33,-1.06 1.33,-0.95 1.33,-0.8 1.33,-0.67 1.33,-0.53 1.33,-0.62 1.33,-0.65 1.33,-0.63 1.33,-0.44 1.33,-0.5 1.33,-0.53 1.33,-0.55 1.33,-0.5 1.33,-0.35 1.33,-0.47 1.33,-0.77 1.33,-0.42 1.33,-0.48 1.33,-0.56 1.33,-0.49 1.33,-0.43 1.33,-0.69 1.33,-0.4 1.33,-0.57 1.33,-0.54 1.33,-0.61 1.33,-0.34 1.33,-0.52 1.33,-0.58 1.33,-0.59 1.33,-0.4 1.34,-0.61 1.33,-0.39 1.33,-0.49 1.33,-0.48 1.33,-0.42 1.33,-0.42 1.33,-0.41 1.33,-0.47 1.33,-0.14 1.33,-0.18 1.33,-0.71 1.33,-0.15 1.33,-0.38 1.33,-0.27 1.33,-0.51 1.33,-0.37 1.33,-0.13 1.33,-0.62 1.33,-0.23 1.33,-0.25 1.33,-0.53 1.33,-0.01 1.33,-0.66 1.33,0 1.33,-0.65 1.33,-0.18 1.33,-0.13 1.33,-0.19 1.33,0.19 1.33,-0.58 1.33,-0.23 1.33,-0.18 1.33,-0.41 1.33,-0.01 1.33,-0.35 1.33,-0.36 1.33,-0.09 1.33,-0.29 1.33,0.22 1.33,-0.5 1.34,-0.5 1.33,-0.04 1.33,-0.53 1.33,-0.01 1.33,-0.29 1.33,-0.19 1.33,-0.34 1.33,-0.3 1.33,0.04 1.33,-0.06 1.33,-0.63 1.33,0.1 1.33,-0.67 1.33,-0.27 1.33,0.03 1.33,-0.77 1.33,0.06 1.33,-0.34 1.33,-0.37 1.33,0.09 1.33,-0.44 1.33,-0.45 1.33,0.19 1.33,-0.21 1.33,-0.27 1.33,-0.28 1.33,-0.2 1.33,-0.18 1.33,-0.32 1.33,-0.37 1.33,-0.36 1.33,0.38 1.33,-0.39 1.33,-0.14 1.33,-0.57 1.33,-0.17 1.33,-0.26 1.33,0.2 1.33,-0.51 1.33,-0.26 1.34,-0.17 1.33,-0.24 1.33,-0.15 1.33,0.23 1.33,-0.35 1.33,-0.31 1.33,-0.25 1.33,-0.24 1.33,0.38 1.33,-0.88 1.33,0.33 1.33,-0.54 1.33,0.13 1.33,-0.73 1.33,-0.04 1.33,0.41 1.33,-0.42 1.33,-0.05 1.33,0.15 1.33,-0.28 1.33,0.13 1.33,-0.17 1.33,-0.52 1.33,-0.28 1.33,0.58 1.33,-0.54 1.33,-0.07 1.33,-0.37 1.33,0.12 1.33,-0.07 1.33,-0.46 1.33,-0.2 1.33,0.15 1.33,-0.34 1.33,0.1"
       style="fill:none;stroke:#00cd00;stroke-width:1.5;stroke-linecap:round;stroke-linejoin:round;stroke-miterlimit:10;stroke-opacity:1;stroke-dasharray:none"
       id="path120"
       sodipodi:nodetypes="ccccccccccccccccccccccccccccccccccccccccccccccccccccccccccccccccccccccccccccccccccccccccccccccccccccccccccccccccccccccccccccccccccccccccccccccccccccccccccccccccccccccccccccccccccccccccccccccccccccccccccccccc" /><path
       inkscape:connector-curvature="0"
       d="m 59.59,661.95 1.33,-11.8 1.33,-7.32 1.33,-6.6 1.33,-5.65 1.33,-4.34 1.33,-3.18 1.33,-2.45 1.33,-2.09 1.33,-1.97 1.33,-1.9 1.33,-1.95 1.34,-2.02 1.33,-2.13 1.33,-2.16 1.33,-2.27 1.33,-2.31 1.33,-2.22 1.33,-2.03 1.33,-1.82 1.33,-1.45 1.33,-1.04 1.33,-0.67 1.33,-0.3 1.33,-0.09 1.33,0.02 1.33,0.12 1.33,0.04 1.33,0.02 1.33,-0.1 1.33,-0.26 1.33,-0.39 1.33,-0.54 1.33,-0.66 1.33,-0.84 1.33,-0.98 1.33,-1.14 1.33,-1.27 1.33,-1.37 1.33,-1.48 1.33,-1.65 1.33,-1.8 1.33,-1.71 1.33,-1.7 1.33,-1.76 1.33,-1.71 1.33,-1.4 1.33,-1.27 1.33,-1.01 1.33,-0.84 1.33,-0.41 1.33,-0.05 1.34,0.24 1.33,0.4 1.33,0.6 1.33,0.63 1.33,0.67 1.33,0.7 1.33,0.76 1.33,0.58 1.33,0.6 1.33,0.45 1.33,0.42 1.33,0.39 1.33,0.22 1.33,0.18 1.33,0.21 1.33,0.01 1.33,-0.04 1.33,-0.12 1.33,-0.19 1.33,-0.24 1.33,-0.29 1.33,-0.43 1.33,-0.44 1.33,-0.56 1.33,-0.59 1.33,-0.66 1.33,-0.78 1.33,-0.72 1.33,-0.84 1.33,-0.85 1.33,-0.88 1.33,-0.99 1.33,-0.97 1.33,-1.19 1.33,-1.15 1.33,-1.16 1.33,-1.25 1.33,-1.28 1.33,-1.29 1.33,-1.37 1.34,-1.35 1.33,-1.37 1.33,-1.32 1.33,-1.47 1.33,-1.52 1.33,-1.28 1.33,-1.57 1.33,-1.39 1.33,-1.56 1.33,-1.55 1.33,-1.56 1.33,-1.49 1.33,-1.33 1.33,-1.85 1.33,-1.67 1.33,-1.61 1.33,-1.18 1.33,-1.52 1.33,-1.28 1.33,-1.41 1.33,-0.39 1.33,-1.26 1.33,-1.09 1.33,-0.96 1.33,-0.25 1.33,-0.4 1.33,-1.05 1.33,-0.52 1.33,-0.52 1.33,-0.21 1.33,-0.69 1.33,-0.78 1.33,-0.43 1.33,0.29 1.33,-0.55 1.33,0.16 1.33,0.12 1.33,-0.15 1.33,0.3 1.33,-0.38 1.34,-0.28 1.33,0.47 1.33,0.14 1.33,-0.48 1.33,-0.43 1.33,-0.33 1.33,-0.25 1.33,-0.24 1.33,0.17 1.33,-0.03 1.33,-0.5 1.33,-0.06 1.33,-0.51 1.33,0.26 1.33,-0.88 1.33,0.25 1.33,-0.15 1.33,-0.28 1.33,-1.18 1.33,-0.21 1.33,0.35 1.33,-0.43 1.33,-1.12 1.33,0.65 1.33,-1.13 1.33,0.1 1.33,-0.27 1.33,-0.9 1.33,0.17 1.33,-0.78 1.33,0.18 1.33,-1.05 1.33,-0.25 1.33,-0.25 1.33,0.38 1.33,-0.55 1.33,-0.34 1.33,-0.64 1.33,0.04 1.33,-1.28 1.34,-0.03 1.33,-0.04 1.33,0.2 1.33,-0.02 1.33,-0.36 1.33,-0.57 1.33,0.5 1.33,-0.85 1.33,0.16 1.33,-0.46 1.33,0.26 1.33,0.41 1.33,-1.67 1.33,-0.05 1.33,1.09 1.33,-1.45 1.33,-0.78 1.33,0.29 1.33,-0.39 1.33,-0.9 1.33,0.6 1.33,-0.41 1.33,-0.43 1.33,-0.65 1.33,0.89 1.33,-1.48 1.33,0.93 1.33,-0.87 1.33,0.03 1.33,-0.12 1.33,-0.68 1.33,0.44 1.33,0.42 1.33,-0.42 1.33,0.03 1.33,-1.34"
       style="fill:none;stroke:#ff0000;stroke-width:1.5;stroke-linecap:round;stroke-linejoin:round;stroke-miterlimit:10;stroke-opacity:1;stroke-dasharray:4.5, 7.5;stroke-dashoffset:0"
       id="path122"
       sodipodi:nodetypes="cccccccccccccccccccccccccccccccccccccccccccccccccccccccccccccccccccccccccccccccccccccccccccccccccccccccccccccccccccccccccccccccccccccccccccccccccccccccccccccccccccccccccccccccccccccccccccccccccccccccccccccccc" /><g
       id="g124"><g
         id="g126"
         clip-path="url(#clipPath128)" /></g><g
       id="g242"><g
         id="g244"
         clip-path="url(#clipPath246)" /></g><g
       id="g3617"
       transform="translate(0,17.23)"><g
         id="g250"><g
           clip-path="url(#clipPath254)"
           id="g252"><path
             id="path258"
             style="fill:none;stroke:#000000;stroke-width:1.5;stroke-linecap:round;stroke-linejoin:round;stroke-miterlimit:10;stroke-opacity:1;stroke-dasharray:none"
             d="m 60.92,301.74 2.66,-32.63 2.66,-4.05 2.66,0.93 2.66,2.13 2.66,2.3 2.67,2.09 2.66,1.63 2.66,1.09 2.66,0.66 2.66,0.19 2.66,-0.19 2.66,-0.43 2.66,-0.64 2.66,-0.82 2.66,-0.89 2.66,-0.99 2.66,-1.03 2.66,-1.02 2.66,-1.07 2.66,-1.1 2.66,-1.17 2.66,-1.2 2.66,-1.35 2.66,-1.47 2.66,-1.57 2.67,-1.65 2.66,-1.8 2.66,-1.9 2.66,-1.99 2.66,-2.11 2.66,-2.18 2.66,-2.32 2.66,-2.34 2.66,-2.48 2.66,-2.38 2.66,-2.37 2.66,-2.43 2.66,-2.32 2.66,-2.23 2.66,-2.1 2.66,-2.07 2.66,-1.91 2.66,-1.7 2.66,-1.88 2.66,-1.5 2.67,-1.39 2.66,-1.42 2.66,-1.11 2.66,-1.3 2.66,-1.15 2.66,-0.92 2.66,-1.03 2.66,-1.03 2.66,-0.72 2.66,-0.69 2.66,-0.93 2.66,-0.72 2.66,-0.96 2.66,-0.9 2.66,-0.78 2.66,-0.61 2.66,-0.69 2.66,-0.72 2.66,-0.68 2.66,-0.73 2.67,-0.6 2.66,-0.73 2.66,-0.52 2.66,-0.74 2.66,-0.7 2.66,-0.39 2.66,-0.71 2.66,-0.3 2.66,-0.59 2.66,-0.52 2.66,-0.51 2.66,-0.78 2.66,-0.22 2.66,-0.97 2.66,-0.41 2.66,-0.55 2.66,-0.37 2.66,-0.48 2.66,-0.39 2.66,-0.56 2.67,-0.29 2.66,-0.41 2.66,-0.46 2.66,-0.42 2.66,-0.6 2.66,-0.27 2.66,-0.51 2.66,-0.28 2.66,-0.26 2.66,-0.39 2.66,-0.76 2.66,-0.34 2.66,-0.41 2.66,-0.07 2.66,-0.09 2.66,-0.35 2.66,-0.34 2.66,-0.57 2.66,-0.57 2.67,-0.03 2.66,-0.45 2.66,-0.3 2.66,-0.67 2.66,0.17 2.66,-0.44 2.66,-0.31 2.66,0 2.66,-0.46 2.66,-0.36 2.66,-0.1 2.66,-0.05 2.66,-0.42 2.66,-0.4 2.66,-0.28 2.66,0.01 2.66,-0.66 2.66,-0.15 2.66,-0.18 2.66,-0.42 2.67,0.26 2.66,-1.07 2.66,-0.16 2.66,-0.36 2.66,-0.39 2.66,0.29 2.66,-0.3 2.66,-0.47 2.66,0.17 2.66,0.27 2.66,-1.14 2.66,0.55 2.66,-0.62 2.66,-0.13 2.66,0.23 2.66,-0.34 2.66,-0.85 2.66,-0.59 2.66,0.11 2.66,0.5 2.67,-0.24 2.66,-0.85 2.66,0.42 2.66,-0.76 2.66,-0.41 2.66,-0.12 2.66,0.23 2.66,-0.36 2.66,-0.09 2.66,-0.44 2.66,0.11 2.66,-0.84 2.66,0.19 2.66,0.23 2.66,-0.66 2.66,-0.01 2.66,0.17 2.66,-0.54 2.66,0.24 2.66,-0.33 2.67,0.15 2.66,-0.19 2.66,-0.53 2.66,-0.52 2.66,-0.34 2.66,-0.34 2.66,-0.18 2.66,0.17 2.66,-0.21 2.66,-0.41 2.66,0.08 2.66,-0.41 2.66,0.18 2.66,0.2 2.66,-0.43 2.66,0.31 2.66,-0.25 2.66,-0.59 2.66,-0.17 2.66,0.83 2.67,-1.08 2.66,-0.7 2.66,0.61 2.66,-0.02 2.66,-0.76 2.66,0.69 2.66,-0.58 2.66,0.68 2.66,-0.7 2.66,-0.26 2.66,-0.03 2.66,0.53 2.66,-0.89 2.66,0.06 2.66,-0.04 2.66,0.04 2.66,-0.98 2.66,0.03 2.66,0.24 2.66,-0.86 2.67,0.3 2.66,0.39 2.66,-1.08 2.66,-0.26 2.66,0.21 2.66,-0.58 2.66,0.5 2.66,-0.48 2.66,-0.92 2.66,1.49 2.66,-0.68 2.66,0.13 2.66,-0.6 2.66,1.14 2.66,-0.8 2.66,0 2.66,0.4 2.66,-1.22 2.66,1.09 2.66,-0.78 2.67,0.2 2.66,-0.06 2.66,-0.04 2.66,-0.63 2.66,1.01 2.66,-1.35 2.66,0.93 2.66,-1.05 2.66,0.1 2.66,0.3 2.66,-0.86 2.66,-0.13 2.66,0.35 2.66,-0.25 2.66,0.2 2.66,-0.73 2.66,-0.25 2.66,0.34 2.66,0.27 2.66,-0.21 2.67,-0.56 2.66,0.13 2.66,-0.15 1.93,0.3"
             inkscape:connector-curvature="0" /></g></g><g
         id="g260"><path
           id="path262"
           style="fill:none;stroke:#000000;stroke-width:0.75;stroke-linecap:round;stroke-linejoin:round;stroke-miterlimit:10;stroke-opacity:1;stroke-dasharray:none"
           d="m 58.26,60.96 266.05,0"
           inkscape:connector-curvature="0" /><path
           id="path264"
           style="fill:none;stroke:#000000;stroke-width:0.75;stroke-linecap:round;stroke-linejoin:round;stroke-miterlimit:10;stroke-opacity:1;stroke-dasharray:none"
           d="m 58.26,60.96 0,-5.98"
           inkscape:connector-curvature="0" /><path
           id="path266"
           style="fill:none;stroke:#000000;stroke-width:0.75;stroke-linecap:round;stroke-linejoin:round;stroke-miterlimit:10;stroke-opacity:1;stroke-dasharray:none"
           d="m 124.77,60.96 0,-5.98"
           inkscape:connector-curvature="0" /><path
           id="path268"
           style="fill:none;stroke:#000000;stroke-width:0.75;stroke-linecap:round;stroke-linejoin:round;stroke-miterlimit:10;stroke-opacity:1;stroke-dasharray:none"
           d="m 191.29,60.96 0,-5.98"
           inkscape:connector-curvature="0" /><path
           id="path270"
           style="fill:none;stroke:#000000;stroke-width:0.75;stroke-linecap:round;stroke-linejoin:round;stroke-miterlimit:10;stroke-opacity:1;stroke-dasharray:none"
           d="m 257.8,60.96 0,-5.98"
           inkscape:connector-curvature="0" /><path
           id="path272"
           style="fill:none;stroke:#000000;stroke-width:0.75;stroke-linecap:round;stroke-linejoin:round;stroke-miterlimit:10;stroke-opacity:1;stroke-dasharray:none"
           d="m 324.31,60.96 0,-5.98"
           inkscape:connector-curvature="0" /><text
           id="text274"
           transform="matrix(1,0,0,-1,55.48,39.44)"><tspan
             id="tspan276"
             y="0"
             x="0"
             style="font-size:10px;font-variant:normal;font-weight:normal;writing-mode:lr-tb;fill:#000000;fill-opacity:1;fill-rule:nonzero;stroke:none;font-family:Helvetica;-inkscape-font-specification:Helvetica">0</tspan></text>
<text
           id="text278"
           transform="matrix(1,0,0,-1,119.21,39.44)"><tspan
             id="tspan280"
             sodipodi:role="line"
             y="0"
             x="0 5.5599999"
             style="font-size:10px;font-variant:normal;font-weight:normal;writing-mode:lr-tb;fill:#000000;fill-opacity:1;fill-rule:nonzero;stroke:none;font-family:Helvetica;-inkscape-font-specification:Helvetica">50</tspan></text>
<text
           id="text282"
           transform="matrix(1,0,0,-1,182.95,39.44)"><tspan
             id="tspan284"
             sodipodi:role="line"
             y="0"
             x="0 5.5599999 11.12"
             style="font-size:10px;font-variant:normal;font-weight:normal;writing-mode:lr-tb;fill:#000000;fill-opacity:1;fill-rule:nonzero;stroke:none;font-family:Helvetica;-inkscape-font-specification:Helvetica">100</tspan></text>
<text
           id="text286"
           transform="matrix(1,0,0,-1,249.46,39.44)"><tspan
             id="tspan288"
             sodipodi:role="line"
             y="0"
             x="0 5.5599999 11.12"
             style="font-size:10px;font-variant:normal;font-weight:normal;writing-mode:lr-tb;fill:#000000;fill-opacity:1;fill-rule:nonzero;stroke:none;font-family:Helvetica;-inkscape-font-specification:Helvetica">150</tspan></text>
<text
           id="text290"
           transform="matrix(1,0,0,-1,315.97,39.44)"><tspan
             id="tspan292"
             sodipodi:role="line"
             y="0"
             x="0 5.5599999 11.12"
             style="font-size:10px;font-variant:normal;font-weight:normal;writing-mode:lr-tb;fill:#000000;fill-opacity:1;fill-rule:nonzero;stroke:none;font-family:Helvetica;-inkscape-font-specification:Helvetica">200</tspan></text>
<path
           id="path294"
           style="fill:none;stroke:#000000;stroke-width:0.75;stroke-linecap:round;stroke-linejoin:round;stroke-miterlimit:10;stroke-opacity:1;stroke-dasharray:none"
           d="M 49,70.22 49,254.1"
           inkscape:connector-curvature="0" /><path
           id="path296"
           style="fill:none;stroke:#000000;stroke-width:0.75;stroke-linecap:round;stroke-linejoin:round;stroke-miterlimit:10;stroke-opacity:1;stroke-dasharray:none"
           d="m 49,70.22 -5.97,0"
           inkscape:connector-curvature="0" /><path
           id="path298"
           style="fill:none;stroke:#000000;stroke-width:0.75;stroke-linecap:round;stroke-linejoin:round;stroke-miterlimit:10;stroke-opacity:1;stroke-dasharray:none"
           d="m 49,131.51 -5.97,0"
           inkscape:connector-curvature="0" /><path
           id="path300"
           style="fill:none;stroke:#000000;stroke-width:0.75;stroke-linecap:round;stroke-linejoin:round;stroke-miterlimit:10;stroke-opacity:1;stroke-dasharray:none"
           d="m 49,192.8 -5.97,0"
           inkscape:connector-curvature="0" /><path
           id="path302"
           style="fill:none;stroke:#000000;stroke-width:0.75;stroke-linecap:round;stroke-linejoin:round;stroke-miterlimit:10;stroke-opacity:1;stroke-dasharray:none"
           d="m 49,254.1 -5.97,0"
           inkscape:connector-curvature="0" /><text
           id="text304"
           transform="matrix(0,1,1,0,34.66,56.18)"><tspan
             id="tspan306"
             sodipodi:role="line"
             y="0"
             x="0 5.5599999 11.12 16.959999 22.52"
             style="font-size:10px;font-variant:normal;font-weight:normal;writing-mode:lr-tb;fill:#000000;fill-opacity:1;fill-rule:nonzero;stroke:none;font-family:Helvetica;-inkscape-font-specification:Helvetica">1e+00</tspan></text>
<text
           id="text308"
           transform="matrix(0,1,1,0,34.66,117.47)"><tspan
             id="tspan310"
             sodipodi:role="line"
             y="0"
             x="0 5.5599999 11.12 16.959999 22.52"
             style="font-size:10px;font-variant:normal;font-weight:normal;writing-mode:lr-tb;fill:#000000;fill-opacity:1;fill-rule:nonzero;stroke:none;font-family:Helvetica;-inkscape-font-specification:Helvetica">1e+02</tspan></text>
<text
           id="text312"
           transform="matrix(0,1,1,0,34.66,178.76)"><tspan
             id="tspan314"
             sodipodi:role="line"
             y="0"
             x="0 5.5599999 11.12 16.959999 22.52"
             style="font-size:10px;font-variant:normal;font-weight:normal;writing-mode:lr-tb;fill:#000000;fill-opacity:1;fill-rule:nonzero;stroke:none;font-family:Helvetica;-inkscape-font-specification:Helvetica">1e+04</tspan></text>
<text
           id="text316"
           transform="matrix(0,1,1,0,34.66,240.06)"><tspan
             id="tspan318"
             sodipodi:role="line"
             y="0"
             x="0 5.5599999 11.12 16.959999 22.52"
             style="font-size:10px;font-variant:normal;font-weight:normal;writing-mode:lr-tb;fill:#000000;fill-opacity:1;fill-rule:nonzero;stroke:none;font-family:Helvetica;-inkscape-font-specification:Helvetica">1e+06</tspan></text>
<path
           id="path320"
           style="fill:none;stroke:#000000;stroke-width:0.75;stroke-linecap:round;stroke-linejoin:round;stroke-miterlimit:10;stroke-opacity:1;stroke-dasharray:none"
           d="m 49,60.96 285.9,0 0,250.04 L 49,311 49,60.96"
           inkscape:connector-curvature="0" /></g><g
         id="g322"><g
           clip-path="url(#clipPath326)"
           id="g324"><text
             id="text330"
             transform="matrix(1,0,0,-1,150.88,331.19)"><tspan
               id="tspan332"
               sodipodi:role="line"
               y="0"
               x="0 6.6719999 13.344 20.016001 23.351999 30.684 38.015999 41.352001 48.683998 52.02 59.352001 64.019997 70.692001 75.480003"
               style="font-size:12px;font-variant:normal;font-weight:bold;writing-mode:lr-tb;fill:#000000;fill-opacity:1;fill-rule:nonzero;stroke:none;font-family:Helvetica;-inkscape-font-specification:Helvetica-Bold">800 bp Library</tspan></text>
<text
             id="text334"
             transform="matrix(1,0,0,-1,155.11,15.54)"><tspan
               id="tspan336"
               sodipodi:role="line"
               y="0"
               x="0 5 10.84 19.17 24.73 28.059999 30.84 38.060001 43.470001 48.220001 53.779999 57.009998 62.57 68.129997"
               style="font-size:10px;font-variant:normal;font-weight:normal;writing-mode:lr-tb;fill:#000000;fill-opacity:1;fill-rule:nonzero;stroke:none;font-family:Helvetica;-inkscape-font-specification:Helvetica">k−Mer Coverage</tspan></text>
<text
             id="text338"
             transform="matrix(0,1,1,0,10.76,162.36)"><tspan
               id="tspan340"
               sodipodi:role="line"
               y="0"
               x="0 6.1100001 9.4399996 15 20.559999 26.120001 31.68 37.240002 42.240002"
               style="font-size:10px;font-variant:normal;font-weight:normal;writing-mode:lr-tb;fill:#000000;fill-opacity:1;fill-rule:nonzero;stroke:none;font-family:Helvetica;-inkscape-font-specification:Helvetica">Frequency</tspan></text>
</g></g><g
         id="g342"><g
           clip-path="url(#clipPath346)"
           id="g344"><path
             id="path350"
             style="fill:none;stroke:#00cd00;stroke-width:1.5;stroke-linecap:round;stroke-linejoin:round;stroke-miterlimit:10;stroke-opacity:1;stroke-dasharray:none"
             d="m 59.59,301.74 1.33,-32.63 1.33,-4.05 1.33,0.93 1.33,2.13 1.33,2.3 1.33,2.09 1.33,1.63 1.33,1.09 1.33,0.66 1.33,0.19 1.33,-0.19 1.34,-0.43 1.33,-0.64 1.33,-0.82 1.33,-0.89 1.33,-0.99 1.33,-1.03 1.33,-1.02 1.33,-1.07 1.33,-1.1 1.33,-1.17 1.33,-1.2 1.33,-1.35 1.33,-1.47 1.33,-1.57 1.33,-1.65 1.33,-1.8 1.33,-1.9 1.33,-1.99 1.33,-2.11 1.33,-2.18 1.33,-2.32 1.33,-2.34 1.33,-2.48 1.33,-2.38 1.33,-2.37 1.33,-2.43 1.33,-2.32 1.33,-2.23 1.33,-2.1 1.33,-2.07 1.33,-1.91 1.33,-1.7 1.33,-1.88 1.33,-1.5 1.33,-1.39 1.33,-1.42 1.33,-1.11 1.33,-1.3 1.33,-1.15 1.33,-0.92 1.34,-1.03 1.33,-1.03 1.33,-0.72 1.33,-0.69 1.33,-0.93 1.33,-0.72 1.33,-0.96 1.33,-0.9 1.33,-0.78 1.33,-0.61 1.33,-0.69 1.33,-0.72 1.33,-0.68 1.33,-0.73 1.33,-0.6 1.33,-0.73 1.33,-0.52 1.33,-0.74 1.33,-0.7 1.33,-0.39 1.33,-0.71 1.33,-0.3 1.33,-0.59 1.33,-0.52 1.33,-0.51 1.33,-0.78 1.33,-0.22 1.33,-0.97 1.33,-0.41 1.33,-0.55 1.33,-0.37 1.33,-0.48 1.33,-0.39 1.33,-0.56 1.33,-0.29 1.33,-0.41 1.33,-0.46 1.33,-0.42 1.33,-0.6 1.33,-0.27 1.34,-0.51 1.33,-0.28 1.33,-0.26 1.33,-0.39 1.33,-0.76 1.33,-0.34 1.33,-0.41 1.33,-0.07 1.33,-0.09 1.33,-0.35 1.33,-0.34 1.33,-0.57 1.33,-0.57 1.33,-0.03 1.33,-0.45 1.33,-0.3 1.33,-0.67 1.33,0.17 1.33,-0.44 1.33,-0.31 1.33,0 1.33,-0.46 1.33,-0.36 1.33,-0.1 1.33,-0.05 1.33,-0.42 1.33,-0.4 1.33,-0.28 1.33,0.01 1.33,-0.66 1.33,-0.15 1.33,-0.18 1.33,-0.42 1.33,0.26 1.33,-1.07 1.33,-0.16 1.33,-0.36 1.33,-0.39 1.33,0.29 1.33,-0.3 1.34,-0.47 1.33,0.17 1.33,0.27 1.33,-1.14 1.33,0.55 1.33,-0.62 1.33,-0.13 1.33,0.23 1.33,-0.34 1.33,-0.85 1.33,-0.59 1.33,0.11 1.33,0.5 1.33,-0.24 1.33,-0.85 1.33,0.42 1.33,-0.76 1.33,-0.41 1.33,-0.12 1.33,0.23 1.33,-0.36 1.33,-0.09 1.33,-0.44 1.33,0.11 1.33,-0.84 1.33,0.19 1.33,0.23 1.33,-0.66 1.33,-0.01 1.33,0.17 1.33,-0.54 1.33,0.24 1.33,-0.33 1.33,0.15 1.33,-0.19 1.33,-0.53 1.33,-0.52 1.33,-0.34 1.33,-0.34 1.33,-0.18 1.34,0.17 1.33,-0.21 1.33,-0.41 1.33,0.08 1.33,-0.41 1.33,0.18 1.33,0.2 1.33,-0.43 1.33,0.31 1.33,-0.25 1.33,-0.59 1.33,-0.17 1.33,0.83 1.33,-1.08 1.33,-0.7 1.33,0.61 1.33,-0.02 1.33,-0.76 1.33,0.69 1.33,-0.58 1.33,0.68 1.33,-0.7 1.33,-0.26 1.33,-0.03 1.33,0.53 1.33,-0.89 1.33,0.06 1.33,-0.04 1.33,0.04 1.33,-0.98 1.33,0.03 1.33,0.24 1.33,-0.86 1.33,0.3 1.33,0.39 1.33,-1.08 1.33,-0.26 1.33,0.21 1.33,-0.58 1.34,0.5 1.33,-0.48 1.33,-0.92 1.33,1.49 1.33,-0.68 1.33,0.13 1.33,-0.6 1.33,1.14 1.33,-0.8 1.33,0 1.33,0.4 1.33,-1.22 1.33,1.09 1.33,-0.78 1.33,0.2 1.33,-0.06 1.33,-0.04 1.33,-0.63 1.33,1.01 1.33,-1.35 1.33,0.93 1.33,-1.05 1.33,0.1 1.33,0.3 1.33,-0.86 1.33,-0.13 1.33,0.35 1.33,-0.25 1.33,0.2 1.33,-0.73 1.33,-0.25 1.33,0.34 1.33,0.27 1.33,-0.21 1.33,-0.56 1.33,0.13 1.33,-0.15 1.33,0.41 1.33,-0.37 1.33,-0.31 1.34,0.16 1.33,-1.23 1.33,0.6 1.33,-0.25 1.33,0.31 1.33,-0.1 1.33,-0.09 1.33,0.71 1.33,-1.47 1.33,1 1.33,-0.5 1.33,-0.5 1.33,-0.16 1.33,0.78 1.33,-0.12 1.33,-1.34 1.33,0.3 1.33,1.53 1.33,-1.05 1.33,-0.65 1.33,0.4 1.33,-0.46 1.33,-0.18 1.33,0.37 1.33,-0.19 1.33,0.06 1.33,0.69 1.33,-0.43 1.33,-0.26 1.33,-0.91 1.33,0 1.33,-0.91 1.33,1.67 1.33,-0.74 1.33,-0.28 1.33,-0.55 1.33,-0.32 1.33,-0.18 1.33,0.84 1.33,-1.01 1.34,0.15 1.33,-0.81 1.33,0.86 1.33,-0.05 1.33,0.05 1.33,1.39 1.33,-1.39 1.33,0.93 1.33,-1.24 1.33,-0.1 1.33,-0.35 1.33,0.58 1.33,1.23 1.33,-1.36 1.33,0.03 1.33,-0.53 1.33,0.63 1.33,-0.74 1.33,-1.07 1.33,0.17 1.33,1.12 1.33,-0.94 1.33,0.02 1.33,1.44 1.33,-2.26 1.33,2.16 1.33,-2.75 1.33,0.43 1.33,1.71 1.33,0.13 1.33,0.06 1.33,-1.35 1.33,-1.08 1.33,1.6 1.33,-1.31 1.33,0.85 1.33,0.35 1.33,-0.83 1.33,0.33 1.33,-0.21 1.34,-0.94 1.33,0.63 1.33,-0.22 1.33,0.5 1.33,-1.04 1.33,1.04 1.33,-0.06 1.33,0.48 1.33,-0.57 1.33,-0.35 1.33,-1.49 1.33,1.71 1.33,-1.33 1.33,-0.42 1.33,1.25 1.33,0.16 1.33,-0.36 1.33,-0.16 1.33,-0.44 1.33,1.02 1.33,-1.93 1.33,0.5 1.33,0.35 1.33,0.37 1.33,0.29 1.33,-4.09 1.33,3.08 1.33,-1.53 1.33,1.6 1.33,0.03 1.33,-1.16 1.33,0.63 1.33,1.11 1.33,-1.98 1.33,-0.03 1.33,-0.77 1.33,-0.33 1.33,1.37 1.33,-0.16 1.33,0.16 1.34,-1.12 1.33,1.19 1.33,-1.31 1.33,0.49 1.33,-1.22 1.33,0.52 1.33,-0.66 1.33,0.09 1.33,0.22 1.33,0.56 1.33,-0.38 1.33,-0.62 1.33,-0.05 1.33,1.17 1.33,-0.21 1.33,-1.56 1.33,0.14 1.33,-0.52 1.33,-0.4 1.33,2.34 1.33,-1.32 1.33,-0.05 1.33,-1.12 1.33,2.62 1.33,-1.59 1.33,0.5 1.33,0.84 1.33,-1.68 1.33,-0.84 1.33,1.27 1.33,-0.72 1.33,0.34 1.33,0.79 1.33,-2.21 1.33,-0.38 1.33,0.22 1.33,-0.67 1.33,2.15 1.33,0.48 1.34,-0.38 1.33,0.66 1.33,-1 1.33,1.36 1.33,-0.97 1.33,-0.19 1.33,-1.82 1.33,0.38 1.33,0.63 1.33,-0.85 1.33,0.8 1.33,-0.21 1.33,-1.56 1.33,0.41 1.33,-1.26 1.33,2.98 1.33,-2.31 1.33,1.1 1.33,-0.51 1.33,-0.17 1.33,0.17 1.33,0.28 1.33,0.28 1.33,-1.51 1.33,-0.38 1.33,1.56 1.33,-0.94 1.33,0.6 1.33,-2 1.33,1.16 1.33,0.3 1.33,-1.32 1.33,2.14 1.33,-2.28 1.33,-1.05 1.33,1.64 1.33,0.13 1.33,0.38 1.33,-0.77 1.33,1.37 1.34,-0.92 1.33,1.73 1.33,-1.79 1.33,-0.45 1.33,1.13 1.33,-1.81 1.33,1.51 1.33,0.3 1.33,-0.43 1.33,-1.45 1.33,1.07 1.33,-1.28 1.33,1.97 1.33,-1.01 1.33,1.01 1.33,0.42 1.33,-1.97 1.33,0.73 1.33,-0.39 1.33,-2.18 1.33,0.16 1.33,0.9 1.33,0.08 1.33,0 1.33,1.5 1.33,-0.26 1.33,-0.07 1.33,-1.54 1.33,0.93 1.33,-0.56 1.33,-0.3 1.33,-0.76 1.33,0.16 1.33,2.4 1.33,-1.95 1.33,-0.61 1.33,-0.23 1.33,0.69 1.33,-0.15 1.33,0.38 1.34,1.34 1.33,-0.48 1.33,-0.28 1.33,-0.36 1.33,-0.15 1.33,-0.6 1.33,0.68 0.6,0"
             inkscape:connector-curvature="0" /><path
             id="path352"
             style="fill:none;stroke:#ff0000;stroke-width:1.5;stroke-linecap:round;stroke-linejoin:round;stroke-miterlimit:10;stroke-opacity:1;stroke-dasharray:4.5, 7.5;stroke-dashoffset:0"
             d="m 59.59,319.92 1.33,-17.73 1.33,-11.59 1.33,-8.94 1.33,-6.85 1.33,-5.26 1.33,-4.59 1.33,-4.16 1.33,-3.94 1.33,-3.68 1.33,-3.39 1.33,-3.13 1.34,-2.78 1.33,-2.55 1.33,-2.37 1.33,-2.4 1.33,-2.13 1.33,-2.13 1.33,-2.16 1.33,-2.02 1.33,-2.03 1.33,-2.05 1.33,-2.17 1.33,-1.98 1.33,-1.78 1.33,-2.09 1.33,-1.96 1.33,-1.73 1.33,-1.85 1.33,-1.79 1.33,-1.93 1.33,-1.72 1.33,-1.96 1.33,-1.7 1.33,-1.84 1.33,-2.1 1.33,-1.58 1.33,-1.37 1.33,-1.68 1.33,-1.54 1.33,-1.17 1.33,-1.44 1.33,-0.95 1.33,-1.67 1.33,-0.97 1.33,-0.89 1.33,-1.38 1.33,-1.2 1.33,-1.32 1.33,-0.65 1.33,-0.95 1.33,-0.87 1.34,-1.11 1.33,-0.79 1.33,-0.03 1.33,-0.8 1.33,-1.12 1.33,-0.75 1.33,-0.8 1.33,-0.41 1.33,-1.39 1.33,0.26 1.33,-0.78 1.33,-0.06 1.33,-0.79 1.33,-0.62 1.33,-0.84 1.33,-0.53 1.33,0.12 1.33,-0.79 1.33,0.24 1.33,-1.14 1.33,-0.04 1.33,-0.88 1.33,-0.02 1.33,-0.9 1.33,1.11 1.33,-1.33 1.33,0.07 1.33,-0.3 1.33,-0.5 1.33,-0.33 1.33,-0.38 1.33,-0.89 1.33,-0.14 1.33,-0.23 1.33,-0.36 1.33,0.05 1.33,-0.08 1.33,0.12 1.33,-0.91 1.33,1.15 1.34,-1.29 1.33,-0.72 1.33,-0.45 1.33,-0.37 1.33,0.5 1.33,-0.78 1.33,-0.6 1.33,0.66 1.33,0.07 1.33,0.17 1.33,-1.7 1.33,1.4 1.33,-2.12 1.33,0.07 1.33,-0.64 1.33,-0.14 1.33,0.18 1.33,-0.18 1.33,-1.91 1.33,0.08 1.33,-0.11 1.33,-0.65 1.33,-0.54 1.33,1.16 1.33,-0.32 1.33,-0.38 1.33,-1.67 1.33,-0.58 1.33,0.13 1.33,-0.74 1.33,0.47 1.33,0.1 1.33,0.17 1.33,0.29 1.33,-0.39 1.33,-1.35 1.33,0.6 1.33,-0.39 1.33,-1.36 1.33,-1.47 1.34,0.78 1.33,-0.56 1.33,1.05 1.33,0.08 1.33,-0.96 1.33,-0.53 1.33,0.14 1.33,-1.36 1.33,-0.45 1.33,0.93 1.33,-1.19 1.33,0.21 1.33,-1.93 1.33,2.77 1.33,-2.71 1.33,-0.42 1.33,-0.3 1.33,0.54 1.33,-0.36 1.33,0.12 1.33,-1.01 1.33,-1.38 1.33,-0.14 1.33,0.92 1.33,0.86 1.33,-2.85 1.33,2.85 1.33,-1.28 1.33,-0.65 1.33,0.22 1.33,-0.91 1.33,-1.58 1.33,1.02 1.33,-0.93 1.33,4.3 1.33,-2.42 1.33,-2.6 1.33,1.49 1.33,0.41 1.33,-1.62 1.34,0.18 1.33,1.19 1.33,-1.1 1.33,-2.65 1.33,0.33 1.33,1.86 1.33,-1.45 1.33,0.7 1.33,1.03 1.33,-1.83 1.33,-2.12 1.33,0.59 1.33,1.94 1.33,-1.05 1.33,-0.1 1.33,-0.34 1.33,-1.04 1.33,2.53 1.33,0.29 1.33,0.2 1.33,-1.21 1.33,-0.54 1.33,-0.11 1.33,-2.17 1.33,-0.39 1.33,2.22 1.33,1.3 1.33,-5.09 1.33,0 1.33,1.7 1.33,0.26 1.33,-1.52 1.33,1.78 1.33,-0.79 1.33,-0.55 1.33,0.28 1.33,0.54 1.33,-5.53 1.33,1.7 1.34,3.29 1.33,-0.86 1.33,0.72 1.33,-0.87 1.33,0.44 1.33,-4.62 1.33,1.54 1.33,1.55 1.33,-0.33 1.33,-3.39 1.33,2.88 1.33,2.08 1.33,-3.93 1.33,0.39 1.33,2.13 1.33,0.96 1.33,-0.96 1.33,-1.75 1.33,0.91 1.33,-0.18 1.33,-0.18 1.33,-4.69 1.33,3.76 1.33,-4.83 1.33,4.44 1.33,-4.72 1.33,5.49 1.33,-5.78 1.33,3.54 1.33,-0.92 1.33,0.24 1.33,0.68 1.33,0 1.33,0.65 1.33,-2.81 1.33,2.81 1.33,1.96 1.33,-3.06 1.33,-0.95 1.33,1.62 1.34,-1.14 1.33,0.7 1.33,0.44 1.33,0 1.33,-0.22 1.33,-2.16 1.33,1.24 1.33,-3.51 1.33,5.08 1.33,-4.48 1.33,-1.24 1.33,1.24 1.33,-1.57 1.33,2.97 1.33,2.21 1.33,-5.51 1.33,0.33 1.33,3.5 1.33,-5.27 1.33,4.74 1.33,-0.82 1.33,-1.5 1.33,2.32 1.33,1.75 1.33,-5.4 1.33,2.25 1.33,0 1.33,0.58 1.33,1.09 1.33,-2.59 1.33,0 1.33,-1.68 1.33,2.89 1.33,1.64 1.33,-3.17 1.33,2.91 1.33,-4.27 1.33,6.65 1.33,-2.65 1.33,-4.74 1.34,8.24 1.33,-5.82 1.33,0.92 1.33,2.18 1.33,-3.42 1.33,-0.66 1.33,1.9 1.33,-4.13 1.33,1.53 1.33,0 1.33,3.18 1.33,-5.12 1.33,1.57 1.33,2.97 1.33,-4.96 1.33,2.71 1.33,-0.35 1.33,-1.13 1.33,-2.12 1.33,-1.97 1.33,1.51 1.33,-0.49 1.33,5.23 1.33,-0.68 1.33,-2.71 1.33,-2.34 1.33,1.9 1.33,-0.45 1.33,3.95 1.33,-3.5 1.33,1.67 1.33,-3.57 1.33,2.34 1.33,0.83 1.33,-8.06 1.33,8.85 1.33,0.37 1.33,-2.88 1.33,2.51 1.33,-2.06 1.34,0.86 1.33,-5.6 1.33,0 1.33,-1.33 1.33,0.68 1.33,7.06 1.33,-5.2 1.33,-0.59 1.33,2.22 1.33,4.33 1.33,-5.96 1.33,0 1.33,1.11 1.33,4.09 1.33,-6.41 1.33,2.32 1.33,1.02 1.33,-4.67 1.33,-5.06 1.33,8.16 1.33,-1.77 1.33,-3.62 1.33,12.19 1.33,-7.95 1.33,0.59 1.33,3.53 1.33,-1.9 1.33,1.9 1.33,0 1.33,0.44 1.33,-5.18 1.33,0.62 1.33,-2.67 1.33,4.37 1.33,-1.7 1.33,-0.62 1.33,0.62 1.33,2.22 1.33,3.57 1.33,-6.41 1.34,-1.33 1.33,1.95 1.33,2.22 1.33,-5.65 1.33,1.48 1.33,0.68 1.33,3.49 1.33,-7.32 1.33,6.25 1.33,-1.15 1.33,2.72 1.33,-1.02 1.33,-4.37 1.33,1.4 1.33,1.27 1.33,-1.95 1.33,2.54 1.33,-5.69 1.33,6.25 1.33,2.52 1.33,-7.1 1.33,2.81 1.33,-1.33 1.33,8.13 1.33,-7.45 1.33,2.42 1.33,-6.25 1.33,7.82 1.33,-2.72 1.33,-1.27 1.33,-4.75 1.33,7.17 1.33,-4.58 1.33,5.13 1.33,-1.7 1.33,-1.27 1.33,0 1.33,-3.83 1.33,6.8 1.34,-6.8 1.33,3.15 1.33,-2.29 1.33,4.24 1.33,-3.43 1.33,-0.81 1.33,1.57 1.33,0 1.33,-7.83 1.33,3.49 1.33,1.91 1.33,0 1.33,5.1 1.33,-6.02 1.33,-0.99 1.33,0 1.33,4.34 1.33,7.23 1.33,-6.51 1.33,-2.29 1.33,7.91 1.33,-4.94 1.33,-2.97 1.33,1.57 1.33,-4.34 1.33,5.74 1.33,-1.4 1.33,3.26 1.33,-17.89 1.33,15.35 1.33,-4.07 1.33,1.78 1.33,2.29 1.33,-3.15 1.33,-1.91 1.33,-6.46 1.33,11.52 1.33,-3.15 1.33,-5.4 1.33,6.26 1.34,0 1.33,-3.83 1.33,6.12 1.33,-0.72 1.33,-3.35 1.33,6.61 1.33,-5.69 1.33,2.43 1.33,-7.83 1.33,2.43 1.33,2.97 1.33,-1.91 1.33,-1.06 1.33,2.05 1.33,-0.99 1.33,0 1.33,-1.06 1.33,2.05 1.33,0 1.33,4.07 1.33,-6.12 1.33,-1.16 1.33,2.22 1.33,0.99 1.33,1.78 1.33,-1.78 1.33,0.92 1.33,-2.97 1.33,0 1.33,1.06 1.33,0 1.33,5.06 1.33,-13.29 1.33,1.77 1.33,-3.83 1.33,13.87 1.33,-7.07 1.33,2.43 1.33,-3.83 1.33,5.88 1.34,-3.21 1.33,1.16 1.33,6.12 1.33,-7.28 1.33,2.22 1.33,-8.23 1.33,12.57 0.6,-4.9"
             inkscape:connector-curvature="0" /></g></g></g><g
       id="g354"><g
         id="g356"
         clip-path="url(#clipPath358)" /></g><g
       id="g3665"
       transform="translate(-12.195,0)"><g
         id="g3515"><g
           id="g132"><g
             id="g134"
             clip-path="url(#clipPath136)"><path
               d="m 419.59,661.74 1.33,-20.63 1.33,-11.8 1.33,-8.47 1.33,-6.56 1.33,-3.59 1.33,-1.88 1.33,-0.58 1.33,-0.19 1.33,0.11 1.33,0.05 1.33,0.14 1.34,0.2 1.33,0.48 1.33,0.58 1.33,0.72 1.33,0.63 1.33,0.59 1.33,0.37 1.33,0.13 1.33,-0.1 1.33,-0.35 1.33,-0.62 1.33,-0.77 1.33,-0.87 1.33,-0.9 1.33,-0.88 1.33,-0.7 1.33,-0.52 1.33,-0.27 1.33,0.01 1.33,0.16 1.33,0.36 1.33,0.42 1.33,0.4 1.33,0.39 1.33,0.32 1.33,0.2 1.33,0.07 1.33,-0.02 1.33,-0.22 1.33,-0.33 1.33,-0.51 1.33,-0.6 1.33,-0.82 1.33,-0.92 1.33,-1.08 1.33,-1.17 1.33,-1.35 1.33,-1.45 1.33,-1.55 1.33,-1.65 1.34,-1.76 1.33,-1.84 1.33,-1.94 1.33,-1.99 1.33,-1.94 1.33,-2.07 1.33,-2.01 1.33,-2.01 1.33,-1.95 1.33,-1.87 1.33,-1.91 1.33,-1.69 1.33,-1.63 1.33,-1.45 1.33,-1.28 1.33,-0.95 1.33,-1.19 1.33,-0.91 1.33,-0.75 1.33,-0.88 1.33,-0.69 1.33,-0.49 1.33,-0.66 1.33,-0.64 1.33,-0.43 1.33,-0.51 1.33,-0.58 1.33,-0.29 1.33,-0.55 1.33,-0.36 1.33,-0.43 1.33,-0.41 1.33,-0.52 1.33,-0.38 1.33,-0.48 1.33,-0.38 1.33,-0.33 1.33,-0.5 1.33,-0.55 1.33,-0.45 1.34,-0.37 1.33,-0.51 1.33,-0.41 1.33,-0.34 1.33,-0.47 1.33,-0.53 1.33,-0.58 1.33,-0.37 1.33,-0.63 1.33,-0.4 1.33,-0.59 1.33,-0.32 1.33,-0.35 1.33,-0.51 1.33,-0.19 1.33,-0.47 1.33,-0.29 1.33,-0.56 1.33,-0.46 1.33,-0.48 1.33,-0.16 1.33,-0.51 1.33,-0.51 1.33,-0.28 1.33,-0.46 1.33,-0.39 1.33,-0.18 1.33,-0.26 1.33,-0.34 1.33,-0.18 1.33,-0.47 1.33,-0.32 1.33,-0.46 1.33,-0.18 1.33,-0.22 1.33,-0.51 1.33,-0.35 1.33,-0.1 1.33,-0.22 1.33,-0.41 1.34,-0.17 1.33,-0.24 1.33,-0.11 1.33,-0.39 1.33,-0.45 1.33,0.45 1.33,-0.68 1.33,-0.14 1.33,-0.26 1.33,-0.19 1.33,-0.63 1.33,-0.02 1.33,-0.49 1.33,-0.33 1.33,-0.04 1.33,-0.42 1.33,0.09 1.33,-0.39 1.33,-0.16 1.33,-0.42 1.33,-0.45 1.33,0.04 1.33,0.14 1.33,-0.43 1.33,-0.27 1.33,0.16 1.33,-0.8 1.33,0.07 1.33,-0.33 1.33,-0.35 1.33,-0.15 1.33,-0.17 1.33,0.12 1.33,-0.04 1.33,-0.73 1.33,0.14 1.33,-0.58 1.33,0.07 1.33,-0.49 1.33,0.03 1.34,-0.17 1.33,0.06 1.33,-0.18 1.33,-0.34 1.33,0.12 1.33,-0.85 1.33,-0.02 1.33,-0.33 1.33,-0.21 1.33,-0.09 1.33,0.02 1.33,-0.63 1.33,-0.12 1.33,0.47 1.33,-0.24 1.33,-0.29 1.33,-0.11 1.33,-0.16 1.33,0.06 1.33,-0.85 1.33,0.29 1.33,-0.21 1.33,-0.2 1.33,-0.22 1.33,0.23 1.33,-0.45 1.33,-0.16 1.33,-0.05 1.33,-0.29 1.33,-0.13 1.33,-0.52 1.33,0 1.33,0.14 1.33,-0.42 1.33,-0.59 1.33,0.42 1.33,-0.5 1.33,-0.05 1.33,0.4 1.34,-1.04 1.33,0.26 1.33,0.06 1.33,-0.53 1.33,0.45 1.33,-0.67 1.33,0.6 1.33,-0.3 1.33,-0.35 1.33,-0.53 1.33,0.23 1.33,-0.26 1.33,-0.19 1.33,0.55 1.33,-0.84 1.1,0.15"
               style="fill:none;stroke:#000000;stroke-width:1.5;stroke-linecap:round;stroke-linejoin:round;stroke-miterlimit:10;stroke-opacity:1;stroke-dasharray:none"
               id="path140"
               inkscape:connector-curvature="0" /></g></g><g
           id="g142"><path
             d="m 418.26,420.96 266.05,0"
             style="fill:none;stroke:#000000;stroke-width:0.75;stroke-linecap:round;stroke-linejoin:round;stroke-miterlimit:10;stroke-opacity:1;stroke-dasharray:none"
             id="path144"
             inkscape:connector-curvature="0" /><path
             d="m 418.26,420.96 0,-5.98"
             style="fill:none;stroke:#000000;stroke-width:0.75;stroke-linecap:round;stroke-linejoin:round;stroke-miterlimit:10;stroke-opacity:1;stroke-dasharray:none"
             id="path146"
             inkscape:connector-curvature="0" /><path
             d="m 484.77,420.96 0,-5.98"
             style="fill:none;stroke:#000000;stroke-width:0.75;stroke-linecap:round;stroke-linejoin:round;stroke-miterlimit:10;stroke-opacity:1;stroke-dasharray:none"
             id="path148"
             inkscape:connector-curvature="0" /><path
             d="m 551.29,420.96 0,-5.98"
             style="fill:none;stroke:#000000;stroke-width:0.75;stroke-linecap:round;stroke-linejoin:round;stroke-miterlimit:10;stroke-opacity:1;stroke-dasharray:none"
             id="path150"
             inkscape:connector-curvature="0" /><path
             d="m 617.8,420.96 0,-5.98"
             style="fill:none;stroke:#000000;stroke-width:0.75;stroke-linecap:round;stroke-linejoin:round;stroke-miterlimit:10;stroke-opacity:1;stroke-dasharray:none"
             id="path152"
             inkscape:connector-curvature="0" /><path
             d="m 684.31,420.96 0,-5.98"
             style="fill:none;stroke:#000000;stroke-width:0.75;stroke-linecap:round;stroke-linejoin:round;stroke-miterlimit:10;stroke-opacity:1;stroke-dasharray:none"
             id="path154"
             inkscape:connector-curvature="0" /><text
             transform="matrix(1,0,0,-1,415.48,399.44)"
             id="text156"><tspan
               style="font-size:10px;font-variant:normal;font-weight:normal;writing-mode:lr-tb;fill:#000000;fill-opacity:1;fill-rule:nonzero;stroke:none;font-family:Helvetica;-inkscape-font-specification:Helvetica"
               x="0"
               y="0"
               id="tspan158">0</tspan></text>
<text
             transform="matrix(1,0,0,-1,479.21,399.44)"
             id="text160"><tspan
               style="font-size:10px;font-variant:normal;font-weight:normal;writing-mode:lr-tb;fill:#000000;fill-opacity:1;fill-rule:nonzero;stroke:none;font-family:Helvetica;-inkscape-font-specification:Helvetica"
               x="0 5.5599999"
               y="0"
               sodipodi:role="line"
               id="tspan162">50</tspan></text>
<text
             transform="matrix(1,0,0,-1,542.95,399.44)"
             id="text164"><tspan
               style="font-size:10px;font-variant:normal;font-weight:normal;writing-mode:lr-tb;fill:#000000;fill-opacity:1;fill-rule:nonzero;stroke:none;font-family:Helvetica;-inkscape-font-specification:Helvetica"
               x="0 5.5599999 11.12"
               y="0"
               sodipodi:role="line"
               id="tspan166">100</tspan></text>
<text
             transform="matrix(1,0,0,-1,609.46,399.44)"
             id="text168"><tspan
               style="font-size:10px;font-variant:normal;font-weight:normal;writing-mode:lr-tb;fill:#000000;fill-opacity:1;fill-rule:nonzero;stroke:none;font-family:Helvetica;-inkscape-font-specification:Helvetica"
               x="0 5.5599999 11.12"
               y="0"
               sodipodi:role="line"
               id="tspan170">150</tspan></text>
<text
             transform="matrix(1,0,0,-1,675.97,399.44)"
             id="text172"><tspan
               style="font-size:10px;font-variant:normal;font-weight:normal;writing-mode:lr-tb;fill:#000000;fill-opacity:1;fill-rule:nonzero;stroke:none;font-family:Helvetica;-inkscape-font-specification:Helvetica"
               x="0 5.5599999 11.12"
               y="0"
               sodipodi:role="line"
               id="tspan174">200</tspan></text>
<path
             d="m 409,430.22 0,222.83"
             style="fill:none;stroke:#000000;stroke-width:0.75;stroke-linecap:round;stroke-linejoin:round;stroke-miterlimit:10;stroke-opacity:1;stroke-dasharray:none"
             id="path176"
             inkscape:connector-curvature="0" /><path
             d="m 409,430.22 -5.97,0"
             style="fill:none;stroke:#000000;stroke-width:0.75;stroke-linecap:round;stroke-linejoin:round;stroke-miterlimit:10;stroke-opacity:1;stroke-dasharray:none"
             id="path178"
             inkscape:connector-curvature="0" /><path
             d="m 409,485.92 -5.97,0"
             style="fill:none;stroke:#000000;stroke-width:0.75;stroke-linecap:round;stroke-linejoin:round;stroke-miterlimit:10;stroke-opacity:1;stroke-dasharray:none"
             id="path180"
             inkscape:connector-curvature="0" /><path
             d="m 409,541.63 -5.97,0"
             style="fill:none;stroke:#000000;stroke-width:0.75;stroke-linecap:round;stroke-linejoin:round;stroke-miterlimit:10;stroke-opacity:1;stroke-dasharray:none"
             id="path182"
             inkscape:connector-curvature="0" /><path
             d="m 409,597.34 -5.97,0"
             style="fill:none;stroke:#000000;stroke-width:0.75;stroke-linecap:round;stroke-linejoin:round;stroke-miterlimit:10;stroke-opacity:1;stroke-dasharray:none"
             id="path184"
             inkscape:connector-curvature="0" /><path
             d="m 409,653.05 -5.97,0"
             style="fill:none;stroke:#000000;stroke-width:0.75;stroke-linecap:round;stroke-linejoin:round;stroke-miterlimit:10;stroke-opacity:1;stroke-dasharray:none"
             id="path186"
             inkscape:connector-curvature="0" /><text
             transform="matrix(0,1,1,0,394.66,416.18)"
             id="text188"><tspan
               style="font-size:10px;font-variant:normal;font-weight:normal;writing-mode:lr-tb;fill:#000000;fill-opacity:1;fill-rule:nonzero;stroke:none;font-family:Helvetica;-inkscape-font-specification:Helvetica"
               x="0 5.5599999 11.12 16.959999 22.52"
               y="0"
               sodipodi:role="line"
               id="tspan190">1e+00</tspan></text>
<text
             transform="matrix(0,1,1,0,394.66,471.88)"
             id="text192"><tspan
               style="font-size:10px;font-variant:normal;font-weight:normal;writing-mode:lr-tb;fill:#000000;fill-opacity:1;fill-rule:nonzero;stroke:none;font-family:Helvetica;-inkscape-font-specification:Helvetica"
               x="0 5.5599999 11.12 16.959999 22.52"
               y="0"
               sodipodi:role="line"
               id="tspan194">1e+02</tspan></text>
<text
             transform="matrix(0,1,1,0,394.66,527.59)"
             id="text196"><tspan
               style="font-size:10px;font-variant:normal;font-weight:normal;writing-mode:lr-tb;fill:#000000;fill-opacity:1;fill-rule:nonzero;stroke:none;font-family:Helvetica;-inkscape-font-specification:Helvetica"
               x="0 5.5599999 11.12 16.959999 22.52"
               y="0"
               sodipodi:role="line"
               id="tspan198">1e+04</tspan></text>
<text
             transform="matrix(0,1,1,0,394.66,583.3)"
             id="text200"><tspan
               style="font-size:10px;font-variant:normal;font-weight:normal;writing-mode:lr-tb;fill:#000000;fill-opacity:1;fill-rule:nonzero;stroke:none;font-family:Helvetica;-inkscape-font-specification:Helvetica"
               x="0 5.5599999 11.12 16.959999 22.52"
               y="0"
               sodipodi:role="line"
               id="tspan202">1e+06</tspan></text>
<text
             transform="matrix(0,1,1,0,394.66,639.01)"
             id="text204"><tspan
               style="font-size:10px;font-variant:normal;font-weight:normal;writing-mode:lr-tb;fill:#000000;fill-opacity:1;fill-rule:nonzero;stroke:none;font-family:Helvetica;-inkscape-font-specification:Helvetica"
               x="0 5.5599999 11.12 16.959999 22.52"
               y="0"
               sodipodi:role="line"
               id="tspan206">1e+08</tspan></text>
<path
             d="m 409,420.96 285.9,0 0,250.04 -285.9,0 0,-250.04"
             style="fill:none;stroke:#000000;stroke-width:0.75;stroke-linecap:round;stroke-linejoin:round;stroke-miterlimit:10;stroke-opacity:1;stroke-dasharray:none"
             id="path208"
             inkscape:connector-curvature="0" /></g><g
           id="g210"><g
             id="g212"
             clip-path="url(#clipPath214)"><text
               transform="matrix(1,0,0,-1,510.88,691.19)"
               id="text218"><tspan
                 style="font-size:12px;font-variant:normal;font-weight:bold;writing-mode:lr-tb;fill:#000000;fill-opacity:1;fill-rule:nonzero;stroke:none;font-family:Helvetica;-inkscape-font-specification:Helvetica-Bold"
                 x="0 6.6719999 13.344 20.016001 23.351999 30.684 38.015999 41.352001 48.683998 52.02 59.352001 64.019997 70.692001 75.480003"
                 y="0"
                 sodipodi:role="line"
                 id="tspan220">500 bp Library</tspan></text>
<text
               transform="matrix(1,0,0,-1,515.11,375.54)"
               id="text222"><tspan
                 style="font-size:10px;font-variant:normal;font-weight:normal;writing-mode:lr-tb;fill:#000000;fill-opacity:1;fill-rule:nonzero;stroke:none;font-family:Helvetica;-inkscape-font-specification:Helvetica"
                 x="0 5 10.84 19.17 24.73 28.059999 30.84 38.060001 43.470001 48.220001 53.779999 57.009998 62.57 68.129997"
                 y="0"
                 sodipodi:role="line"
                 id="tspan224">k−Mer Coverage</tspan></text>
<text
               transform="matrix(0,1,1,0,370.76,522.36)"
               id="text226"><tspan
                 style="font-size:10px;font-variant:normal;font-weight:normal;writing-mode:lr-tb;fill:#000000;fill-opacity:1;fill-rule:nonzero;stroke:none;font-family:Helvetica;-inkscape-font-specification:Helvetica"
                 x="0 6.1100001 9.4399996 15 20.559999 26.120001 31.68 37.240002 42.240002"
                 y="0"
                 sodipodi:role="line"
                 id="tspan228">Frequency</tspan></text>
</g></g><g
           id="g230"><g
             id="g232"
             clip-path="url(#clipPath234)"><path
               d="m 419.59,644.58 1.33,-37.79 1.33,-8.01 1.33,-2.73 1.33,-2.07 1.33,-1.69 1.33,-0.95 1.33,0.06 1.33,1.26 1.33,2.1 1.33,2.52 1.33,2.73 1.34,2.61 1.33,2.39 1.33,2.05 1.33,1.64 1.33,1.26 1.33,0.88 1.33,0.47 1.33,0.11 1.33,-0.18 1.33,-0.44 1.33,-0.71 1.33,-0.8 1.33,-0.89 1.33,-0.86 1.33,-0.71 1.33,-0.53 1.33,-0.33 1.33,-0.05 1.33,0.14 1.33,0.24 1.33,0.36 1.33,0.34 1.33,0.33 1.33,0.23 1.33,0.15 1.33,0 1.33,-0.14 1.33,-0.27 1.33,-0.41 1.33,-0.6 1.33,-0.73 1.33,-0.87 1.33,-1.03 1.33,-1.2 1.33,-1.26 1.33,-1.46 1.33,-1.51 1.33,-1.66 1.33,-1.76 1.33,-1.85 1.34,-1.91 1.33,-2.05 1.33,-2.02 1.33,-2.01 1.33,-2.1 1.33,-2.01 1.33,-2.05 1.33,-1.99 1.33,-1.94 1.33,-1.74 1.33,-1.69 1.33,-1.36 1.33,-1.38 1.33,-1.16 1.33,-1.08 1.33,-0.96 1.33,-0.87 1.33,-0.75 1.33,-0.72 1.33,-0.65 1.33,-0.62 1.33,-0.41 1.33,-0.68 1.33,-0.54 1.33,-0.48 1.33,-0.44 1.33,-0.42 1.33,-0.4 1.33,-0.5 1.33,-0.46 1.33,-0.39 1.33,-0.64 1.33,-0.54 1.33,-0.27 1.33,-0.53 1.33,-0.43 1.33,-0.53 1.33,-0.48 1.33,-0.54 1.33,-0.44 1.34,-0.37 1.33,-0.48 1.33,-0.51 1.33,-0.45 1.33,-0.44 1.33,-0.54 1.33,-0.35 1.33,-0.52 1.33,-0.5 1.33,-0.43 1.33,-0.64 1.33,-0.2 1.33,-0.45 1.33,-0.52 1.33,-0.33 1.33,-0.51 1.33,-0.41 1.33,-0.26 1.33,-0.31 1.33,-0.57 1.33,-0.47 1.33,0.13 1.33,-0.71 1.33,-0.39 1.33,-0.02 1.33,-0.59 1.33,-0.67 1.33,-0.17 1.33,-0.36 1.33,-0.14 1.33,-0.43 1.33,-0.33 1.33,-0.02 1.33,-0.64 1.33,0.02 1.33,-0.46 1.33,-0.18 1.33,-0.18 1.33,-0.1 1.33,-0.64 1.34,-0.09 1.33,0.11 1.33,-0.5 1.33,-0.09 1.33,-0.48 1.33,-0.2 1.33,-0.43 1.33,-0.17 1.33,-0.49 1.33,-0.12 1.33,-0.2 1.33,-0.32 1.33,-0.26 1.33,-0.14 1.33,-0.14 1.33,-0.33 1.33,-0.49 1.33,-0.13 1.33,-0.1 1.33,-0.36 1.33,-0.15 1.33,-0.36 1.33,0.01 1.33,-0.33 1.33,-0.15 1.33,0.05 1.33,-0.62 1.33,-0.01 1.33,-0.13 1.33,0.11 1.33,-0.53 1.33,-0.21 1.33,-0.44 1.33,0.1 1.33,0.07 1.33,-0.65 1.33,-0.33 1.33,0.03 1.33,-0.24 1.33,0.08 1.34,-0.9 1.33,0.1 1.33,0.04 1.33,-0.75 1.33,0.41 1.33,-0.29 1.33,-0.37 1.33,0.41 1.33,-0.05 1.33,-0.81 1.33,0.2 1.33,-0.56 1.33,0.25 1.33,-0.01 1.33,-0.65 1.33,0.15 1.33,-0.67 1.33,0.29 1.33,-0.4 1.33,0.09 1.33,-0.45 1.33,0.01 1.33,-0.42 1.33,-0.14 1.33,-0.51 1.33,0.34 1.33,-0.55 1.33,0.09 1.33,-0.14 1.33,-0.49 1.33,-0.01 1.33,-0.18 1.33,-0.28 1.33,-0.36 1.33,0.72 1.33,-0.5 1.33,-0.22 1.33,-0.24 1.33,-0.06 1.34,0.43 1.33,-0.7 1.33,0.31 1.33,-0.37 1.33,-0.73 1.33,0.26 1.33,0.44 1.33,-0.85 1.33,0.1 1.33,-0.24 1.33,0.72 1.33,-0.31 1.33,-1.04 1.33,1.09 1.33,-0.66 1.1,-0.13"
               style="fill:none;stroke:#00cd00;stroke-width:1.5;stroke-linecap:round;stroke-linejoin:round;stroke-miterlimit:10;stroke-opacity:1;stroke-dasharray:none"
               id="path238"
               inkscape:connector-curvature="0" /><path
               d="m 419.59,660.83 1.33,-15.32 1.33,-10.78 1.33,-9.34 1.33,-8.03 1.33,-5.12 1.33,-2.85 1.33,-1.22 1.33,-0.83 1.33,-0.69 1.33,-1.05 1.33,-1.35 1.34,-1.81 1.33,-2 1.33,-2.28 1.33,-2.27 1.33,-2.43 1.33,-2.18 1.33,-2.13 1.33,-1.81 1.33,-1.83 1.33,-1.43 1.33,-1.52 1.33,-1.32 1.33,-1.42 1.33,-1.12 1.33,-1.27 1.33,-0.99 1.33,-1.04 1.33,-0.87 1.33,-0.73 1.33,-0.79 1.33,-0.61 1.33,-0.66 1.33,-0.42 1.33,-0.46 1.33,-0.66 1.33,-0.46 1.33,-0.62 1.33,-0.64 1.33,-0.81 1.33,-0.93 1.33,-0.95 1.33,-0.84 1.33,-1.02 1.33,-1.12 1.33,-1.25 1.33,-1.12 1.33,-1.54 1.33,-1.4 1.33,-1.76 1.33,-1.42 1.34,-1.67 1.33,-1.51 1.33,-1.98 1.33,-1.49 1.33,-1.89 1.33,-1.39 1.33,-1.77 1.33,-1.27 1.33,-1.67 1.33,-1.32 1.33,-1.59 1.33,-0.88 1.33,-1.23 1.33,-0.57 1.33,-1.28 1.33,-0.72 1.33,-0.86 1.33,-0.36 1.33,-1.41 1.33,-0.43 1.33,-0.7 1.33,-0.44 1.33,-0.88 1.33,-0.32 1.33,-0.94 1.33,0.43 1.33,-0.96 1.33,-0.56 1.33,-0.41 1.33,-0.16 1.33,-0.22 1.33,-0.19 1.33,-0.79 1.33,0.6 1.33,-0.88 1.33,-0.36 1.33,-0.17 1.33,-0.11 1.33,-1.27 1.33,0.72 1.34,-1.56 1.33,1.49 1.33,-0.69 1.33,0.42 1.33,-1.06 1.33,-0.04 1.33,-1.03 1.33,0.99 1.33,-1.53 1.33,0.49 1.33,0.25 1.33,-0.97 1.33,-0.03 1.33,-0.11 1.33,-0.55 1.33,-0.36 1.33,0.29 1.33,-0.74 1.33,-0.35 1.33,-0.16 1.33,-0.11 1.33,0.27 1.33,-0.08 1.33,-0.59 1.33,-0.62 1.33,-0.25 1.33,-0.75 1.33,0.06 1.33,-1.36 1.33,0.03 1.33,0.58 1.33,-0.46 1.33,-0.55 1.33,0.77 1.33,-1.05 1.33,-1.13 1.33,-0.17 1.33,-0.76 1.33,0.33 1.33,0.35 1.34,-0.56 1.33,0.67 1.33,-1.04 1.33,0.14 1.33,-0.57 1.33,0.18 1.33,-0.25 1.33,-0.68 1.33,-0.81 1.33,-0.7 1.33,-0.58 1.33,0.28 1.33,-0.5 1.33,-0.92 1.33,0.92 1.33,-0.46 1.33,-0.26 1.33,0.21 1.33,-0.95 1.33,1.39 1.33,-0.73 1.33,0.68 1.33,-0.92 1.33,-0.05 1.33,-0.15 1.33,0.37 1.33,0.43 1.33,-1.89 1.33,0.4 1.33,-0.48 1.33,0.66 1.33,-1.61 1.33,0.47 1.33,-0.29 1.33,-0.91 1.33,0.79 1.33,-0.92 1.33,0.35 1.33,-0.29 1.33,-1.06 1.34,0.94 1.33,1.16 1.33,-3.15 1.33,-0.15 1.33,0.27 1.33,0.51 1.33,-0.18 1.33,-0.64 1.33,0.16 1.33,1.01 1.33,-2.34 1.33,-0.34 1.33,-0.9 1.33,1.16 1.33,1.33 1.33,-1.54 1.33,-0.49 1.33,0.44 1.33,-0.44 1.33,0.35 1.33,0.64 1.33,-1.74 1.33,0.05 1.33,0.42 1.33,1.44 1.33,-2.5 1.33,0.69 1.33,-0.69 1.33,0.45 1.33,0.48 1.33,-2.14 1.33,2.14 1.33,0.59 1.33,-1.32 1.33,0.15 1.33,-0.45 1.33,0.79 1.33,-1.63 1.33,0.11 1.34,0.32 1.33,-0.7 1.33,-0.52 1.33,1.11 1.33,1.82 1.33,-3.4 1.33,0.59 1.33,1.2 1.33,0.41 1.33,-3.68 1.33,1.72 1.33,-1.52 1.33,-1.35 1.33,2.07 1.33,-0.92 1.1,-1.86"
               style="fill:none;stroke:#ff0000;stroke-width:1.5;stroke-linecap:round;stroke-linejoin:round;stroke-miterlimit:10;stroke-opacity:1;stroke-dasharray:4.5, 7.5;stroke-dashoffset:0"
               id="path240"
               inkscape:connector-curvature="0" /></g></g></g><g
         transform="translate(0,17.23)"
         id="g3566"><g
           id="g362"><g
             id="g364"
             clip-path="url(#clipPath366)"><path
               inkscape:connector-curvature="0"
               d="m 419.59,301.74 1.33,-16.05 1.33,-9.9 1.33,-6.22 1.33,-4.29 1.33,-3.21 1.33,-3.41 1.33,-2.85 1.33,-2.09 1.33,-1.15 1.33,-0.92 1.33,-0.67 1.34,-1.3 1.33,-1.19 1.33,-0.9 1.33,-0.98 1.33,-1.01 1.33,-0.76 1.33,-0.93 1.33,-1.14 1.33,-0.53 1.33,-0.69 1.33,-0.22 1.33,-0.58 1.33,-0.55 1.33,-0.91 1.33,-0.37 1.33,0.15 1.33,-0.43 1.33,-0.13 1.33,0.35 1.33,0.14 1.33,-0.1 1.33,-0.03 1.33,-0.01 1.33,0.05 1.33,0.27 1.33,0.16 1.33,0.32 1.33,0.55 1.33,0.14 1.33,-0.14 1.33,0.18 1.33,0.53 1.33,0.15 1.33,0.21 1.33,-0.12 1.33,0.05 1.33,-0.05 1.33,0 1.33,0.11 1.33,0.02 1.34,-0.13 1.33,-0.19 1.33,-0.32 1.33,-0.31 1.33,-0.31 1.33,-0.29 1.33,-0.27 1.33,-0.59 1.33,-0.68 1.33,-0.79 1.33,-0.66 1.33,-0.69 1.33,-0.54 1.33,-0.47 1.33,-0.92 1.33,-0.37 1.33,-0.8 1.33,-0.81 1.33,-0.18 1.33,-0.43 1.33,-0.34 1.33,-0.1 1.33,0.04 1.33,-0.27 1.33,-0.35 1.33,-0.15 1.33,0.01 1.33,-0.1 1.33,-0.14 1.33,0.13 1.33,0.24 1.33,0.01 1.33,0.4 1.33,-0.06 1.33,-0.21 1.33,0.16 1.33,0.07 1.33,0.11 1.33,0.07 1.33,0.18 1.34,0.07 1.33,-0.02 1.33,0.26 1.33,-0.06 1.33,0.16 1.33,-0.07 1.33,0.1 1.33,0.03 1.33,0.02 1.33,0.11 1.33,0.07 1.33,-0.12 1.33,0.09 1.33,0 1.33,-0.32 1.33,0 1.33,-0.42 1.33,-0.03 1.33,-0.12 1.33,-0.34 1.33,-0.32 1.33,-0.3 1.33,-0.67 1.33,-0.25 1.33,-0.63 1.33,-0.69 1.33,-0.59 1.33,-0.34 1.33,-0.57 1.33,-1.14 1.33,-0.83 1.33,-0.84 1.33,-0.52 1.33,-0.97 1.33,-1.25 1.33,-1.02 1.33,-1.23 1.33,-1.62 1.33,-0.77 1.33,-0.77 1.34,-1.45 1.33,-0.72 1.33,-0.95 1.33,-1.09 1.33,-1.56 1.33,-1.44 1.33,-1.1 1.33,-1.15 1.33,-0.65 1.33,-1.6 1.33,-0.82 1.33,-1.34 1.33,-1.32 1.33,-1.15 1.33,-0.94 1.33,-0.88 1.33,-1.82 1.33,-0.73 1.33,-0.4 1.33,-1.02 1.33,-0.9 1.33,0.66 1.33,-0.31 1.33,-0.36 1.33,-0.12 1.33,-0.14 1.33,-0.42 1.33,0.47 1.33,-0.71 1.33,0.05 1.33,-0.62 1.33,0.41 1.33,0.39 1.33,-0.81 1.33,-0.28 1.33,-0.13 1.33,-0.59 1.33,-0.16 1.33,-0.06 1.33,-0.45 1.34,-0.37 1.33,-0.47 1.33,-0.57 1.33,0.09 1.33,0.26 1.33,-0.48 1.33,-0.17 1.33,-0.07 1.33,-0.12 1.33,0.13 1.33,-0.01 1.33,-0.92 1.33,0.37 1.33,-0.57 1.33,-0.3 1.33,-0.49 1.33,-0.29 1.33,-1.46 1.33,-0.14 1.33,-0.01 1.33,0.11 1.33,-0.59 1.33,-0.47 1.33,0.43 1.33,-0.28 1.33,-0.89 1.33,0.03 1.33,-0.43 1.33,-0.73 1.33,-0.02 1.33,0.24 1.33,-0.17 1.33,-0.22 1.33,-0.31 1.33,-0.81 1.33,0.16 1.33,0.6 1.33,-1.56 1.33,0.42 1.34,-0.96 1.33,0 1.33,0.66 1.33,-0.43 1.33,0.68 1.33,-1.09 1.33,-0.36 1.33,1.35 1.33,-0.79 1.33,-0.01 1.33,-0.34 1.33,-0.32 1.33,-0.47 1.33,-0.01 1.33,0.57 1.1,0.1"
               style="fill:none;stroke:#000000;stroke-width:1.5;stroke-linecap:round;stroke-linejoin:round;stroke-miterlimit:10;stroke-opacity:1;stroke-dasharray:none"
               id="path370" /></g></g><g
           id="g372"><path
             inkscape:connector-curvature="0"
             d="m 418.26,60.96 266.05,0"
             style="fill:none;stroke:#000000;stroke-width:0.75;stroke-linecap:round;stroke-linejoin:round;stroke-miterlimit:10;stroke-opacity:1;stroke-dasharray:none"
             id="path374" /><path
             inkscape:connector-curvature="0"
             d="m 418.26,60.96 0,-5.98"
             style="fill:none;stroke:#000000;stroke-width:0.75;stroke-linecap:round;stroke-linejoin:round;stroke-miterlimit:10;stroke-opacity:1;stroke-dasharray:none"
             id="path376" /><path
             inkscape:connector-curvature="0"
             d="m 484.77,60.96 0,-5.98"
             style="fill:none;stroke:#000000;stroke-width:0.75;stroke-linecap:round;stroke-linejoin:round;stroke-miterlimit:10;stroke-opacity:1;stroke-dasharray:none"
             id="path378" /><path
             inkscape:connector-curvature="0"
             d="m 551.29,60.96 0,-5.98"
             style="fill:none;stroke:#000000;stroke-width:0.75;stroke-linecap:round;stroke-linejoin:round;stroke-miterlimit:10;stroke-opacity:1;stroke-dasharray:none"
             id="path380" /><path
             inkscape:connector-curvature="0"
             d="m 617.8,60.96 0,-5.98"
             style="fill:none;stroke:#000000;stroke-width:0.75;stroke-linecap:round;stroke-linejoin:round;stroke-miterlimit:10;stroke-opacity:1;stroke-dasharray:none"
             id="path382" /><path
             inkscape:connector-curvature="0"
             d="m 684.31,60.96 0,-5.98"
             style="fill:none;stroke:#000000;stroke-width:0.75;stroke-linecap:round;stroke-linejoin:round;stroke-miterlimit:10;stroke-opacity:1;stroke-dasharray:none"
             id="path384" /><text
             transform="matrix(1,0,0,-1,415.48,39.44)"
             id="text386"><tspan
               style="font-size:10px;font-variant:normal;font-weight:normal;writing-mode:lr-tb;fill:#000000;fill-opacity:1;fill-rule:nonzero;stroke:none;font-family:Helvetica;-inkscape-font-specification:Helvetica"
               x="0"
               y="0"
               id="tspan388">0</tspan></text>
<text
             transform="matrix(1,0,0,-1,479.21,39.44)"
             id="text390"><tspan
               style="font-size:10px;font-variant:normal;font-weight:normal;writing-mode:lr-tb;fill:#000000;fill-opacity:1;fill-rule:nonzero;stroke:none;font-family:Helvetica;-inkscape-font-specification:Helvetica"
               x="0 5.5599999"
               y="0"
               sodipodi:role="line"
               id="tspan392">50</tspan></text>
<text
             transform="matrix(1,0,0,-1,542.95,39.44)"
             id="text394"><tspan
               style="font-size:10px;font-variant:normal;font-weight:normal;writing-mode:lr-tb;fill:#000000;fill-opacity:1;fill-rule:nonzero;stroke:none;font-family:Helvetica;-inkscape-font-specification:Helvetica"
               x="0 5.5599999 11.12"
               y="0"
               sodipodi:role="line"
               id="tspan396">100</tspan></text>
<text
             transform="matrix(1,0,0,-1,609.46,39.44)"
             id="text398"><tspan
               style="font-size:10px;font-variant:normal;font-weight:normal;writing-mode:lr-tb;fill:#000000;fill-opacity:1;fill-rule:nonzero;stroke:none;font-family:Helvetica;-inkscape-font-specification:Helvetica"
               x="0 5.5599999 11.12"
               y="0"
               sodipodi:role="line"
               id="tspan400">150</tspan></text>
<text
             transform="matrix(1,0,0,-1,675.97,39.44)"
             id="text402"><tspan
               style="font-size:10px;font-variant:normal;font-weight:normal;writing-mode:lr-tb;fill:#000000;fill-opacity:1;fill-rule:nonzero;stroke:none;font-family:Helvetica;-inkscape-font-specification:Helvetica"
               x="0 5.5599999 11.12"
               y="0"
               sodipodi:role="line"
               id="tspan404">200</tspan></text>
<path
             inkscape:connector-curvature="0"
             d="m 409,70.22 0,226.76"
             style="fill:none;stroke:#000000;stroke-width:0.75;stroke-linecap:round;stroke-linejoin:round;stroke-miterlimit:10;stroke-opacity:1;stroke-dasharray:none"
             id="path406" /><path
             inkscape:connector-curvature="0"
             d="m 409,70.22 -5.97,0"
             style="fill:none;stroke:#000000;stroke-width:0.75;stroke-linecap:round;stroke-linejoin:round;stroke-miterlimit:10;stroke-opacity:1;stroke-dasharray:none"
             id="path408" /><path
             inkscape:connector-curvature="0"
             d="m 409,126.91 -5.97,0"
             style="fill:none;stroke:#000000;stroke-width:0.75;stroke-linecap:round;stroke-linejoin:round;stroke-miterlimit:10;stroke-opacity:1;stroke-dasharray:none"
             id="path410" /><path
             inkscape:connector-curvature="0"
             d="m 409,183.6 -5.97,0"
             style="fill:none;stroke:#000000;stroke-width:0.75;stroke-linecap:round;stroke-linejoin:round;stroke-miterlimit:10;stroke-opacity:1;stroke-dasharray:none"
             id="path412" /><path
             inkscape:connector-curvature="0"
             d="m 409,240.29 -5.97,0"
             style="fill:none;stroke:#000000;stroke-width:0.75;stroke-linecap:round;stroke-linejoin:round;stroke-miterlimit:10;stroke-opacity:1;stroke-dasharray:none"
             id="path414" /><path
             inkscape:connector-curvature="0"
             d="m 409,296.98 -5.97,0"
             style="fill:none;stroke:#000000;stroke-width:0.75;stroke-linecap:round;stroke-linejoin:round;stroke-miterlimit:10;stroke-opacity:1;stroke-dasharray:none"
             id="path416" /><text
             transform="matrix(0,1,1,0,394.66,56.18)"
             id="text418"><tspan
               style="font-size:10px;font-variant:normal;font-weight:normal;writing-mode:lr-tb;fill:#000000;fill-opacity:1;fill-rule:nonzero;stroke:none;font-family:Helvetica;-inkscape-font-specification:Helvetica"
               x="0 5.5599999 11.12 16.959999 22.52"
               y="0"
               sodipodi:role="line"
               id="tspan420">1e+00</tspan></text>
<text
             transform="matrix(0,1,1,0,394.66,112.87)"
             id="text422"><tspan
               style="font-size:10px;font-variant:normal;font-weight:normal;writing-mode:lr-tb;fill:#000000;fill-opacity:1;fill-rule:nonzero;stroke:none;font-family:Helvetica;-inkscape-font-specification:Helvetica"
               x="0 5.5599999 11.12 16.959999 22.52"
               y="0"
               sodipodi:role="line"
               id="tspan424">1e+02</tspan></text>
<text
             transform="matrix(0,1,1,0,394.66,169.56)"
             id="text426"><tspan
               style="font-size:10px;font-variant:normal;font-weight:normal;writing-mode:lr-tb;fill:#000000;fill-opacity:1;fill-rule:nonzero;stroke:none;font-family:Helvetica;-inkscape-font-specification:Helvetica"
               x="0 5.5599999 11.12 16.959999 22.52"
               y="0"
               sodipodi:role="line"
               id="tspan428">1e+04</tspan></text>
<text
             transform="matrix(0,1,1,0,394.66,226.25)"
             id="text430"><tspan
               style="font-size:10px;font-variant:normal;font-weight:normal;writing-mode:lr-tb;fill:#000000;fill-opacity:1;fill-rule:nonzero;stroke:none;font-family:Helvetica;-inkscape-font-specification:Helvetica"
               x="0 5.5599999 11.12 16.959999 22.52"
               y="0"
               sodipodi:role="line"
               id="tspan432">1e+06</tspan></text>
<text
             transform="matrix(0,1,1,0,394.66,282.94)"
             id="text434"><tspan
               style="font-size:10px;font-variant:normal;font-weight:normal;writing-mode:lr-tb;fill:#000000;fill-opacity:1;fill-rule:nonzero;stroke:none;font-family:Helvetica;-inkscape-font-specification:Helvetica"
               x="0 5.5599999 11.12 16.959999 22.52"
               y="0"
               sodipodi:role="line"
               id="tspan436">1e+08</tspan></text>
<path
             inkscape:connector-curvature="0"
             d="m 409,60.96 285.9,0 0,250.04 -285.9,0 0,-250.04"
             style="fill:none;stroke:#000000;stroke-width:0.75;stroke-linecap:round;stroke-linejoin:round;stroke-miterlimit:10;stroke-opacity:1;stroke-dasharray:none"
             id="path438" /></g><g
           id="g440"><g
             id="g442"
             clip-path="url(#clipPath444)"><text
               transform="matrix(1,0,0,-1,503.88,331.19)"
               id="text448"><tspan
                 style="font-size:12px;font-variant:normal;font-weight:bold;writing-mode:lr-tb;fill:#000000;fill-opacity:1;fill-rule:nonzero;stroke:none;font-family:Helvetica;-inkscape-font-specification:Helvetica-Bold"
                 x="0 9.9960003 17.327999 20.664 27.336 34.007999 41.34 44.675999 52.007999 55.344002 62.675999 66.012001 73.344002 78.012001 84.683998 89.472"
                 y="0"
                 sodipodi:role="line"
                 id="tspan450">Moleculo Library</tspan></text>
<text
               transform="matrix(1,0,0,-1,515.11,15.54)"
               id="text452"><tspan
                 style="font-size:10px;font-variant:normal;font-weight:normal;writing-mode:lr-tb;fill:#000000;fill-opacity:1;fill-rule:nonzero;stroke:none;font-family:Helvetica;-inkscape-font-specification:Helvetica"
                 x="0 5 10.84 19.17 24.73 28.059999 30.84 38.060001 43.470001 48.220001 53.779999 57.009998 62.57 68.129997"
                 y="0"
                 sodipodi:role="line"
                 id="tspan454">k−Mer Coverage</tspan></text>
<text
               transform="matrix(0,1,1,0,370.76,162.36)"
               id="text456"><tspan
                 style="font-size:10px;font-variant:normal;font-weight:normal;writing-mode:lr-tb;fill:#000000;fill-opacity:1;fill-rule:nonzero;stroke:none;font-family:Helvetica;-inkscape-font-specification:Helvetica"
                 x="0 6.1100001 9.4399996 15 20.559999 26.120001 31.68 37.240002 42.240002"
                 y="0"
                 sodipodi:role="line"
                 id="tspan458">Frequency</tspan></text>
</g></g><g
           id="g460"><g
             id="g462"
             clip-path="url(#clipPath464)"><path
               inkscape:connector-curvature="0"
               d="m 419.59,269.27 1.33,-19.5 1.33,-3.07 1.33,-1.9 1.33,-1.58 1.33,-0.9 1.33,-1.1 1.33,-0.52 1.33,-0.4 1.33,-0.45 1.33,-0.39 1.33,0.01 1.34,-0.56 1.33,-0.37 1.33,0.04 1.33,-0.42 1.33,-0.06 1.33,0.18 1.33,-0.36 1.33,-0.18 1.33,0.12 1.33,-0.09 1.33,0.2 1.33,-0.19 1.33,-0.04 1.33,-0.17 1.33,-0.09 1.33,0.4 1.33,-0.17 1.33,0.07 1.33,0.54 1.33,0.26 1.33,0.03 1.33,0.04 1.33,0.05 1.33,0.08 1.33,0.27 1.33,0.21 1.33,0.33 1.33,0.57 1.33,0.14 1.33,-0.13 1.33,0.18 1.33,0.54 1.33,0.17 1.33,0.2 1.33,-0.11 1.33,0.03 1.33,-0.03 1.33,0 1.33,0.12 1.33,0.02 1.34,-0.13 1.33,-0.21 1.33,-0.32 1.33,-0.28 1.33,-0.33 1.33,-0.29 1.33,-0.28 1.33,-0.56 1.33,-0.71 1.33,-0.79 1.33,-0.66 1.33,-0.69 1.33,-0.53 1.33,-0.47 1.33,-0.9 1.33,-0.42 1.33,-0.77 1.33,-0.81 1.33,-0.18 1.33,-0.43 1.33,-0.32 1.33,-0.1 1.33,0.02 1.33,-0.28 1.33,-0.36 1.33,-0.13 1.33,0.01 1.33,-0.11 1.33,-0.14 1.33,0.17 1.33,0.19 1.33,0.06 1.33,0.36 1.33,-0.05 1.33,-0.18 1.33,0.13 1.33,0.13 1.33,0.03 1.33,0.08 1.33,0.2 1.34,0.05 1.33,0 1.33,0.28 1.33,-0.1 1.33,0.15 1.33,-0.05 1.33,0.15 1.33,-0.01 1.33,0.06 1.33,0.05 1.33,0.09 1.33,-0.15 1.33,0.13 1.33,-0.03 1.33,-0.31 1.33,-0.01 1.33,-0.41 1.33,0 1.33,-0.14 1.33,-0.34 1.33,-0.33 1.33,-0.32 1.33,-0.61 1.33,-0.28 1.33,-0.66 1.33,-0.67 1.33,-0.64 1.33,-0.33 1.33,-0.54 1.33,-1.13 1.33,-0.84 1.33,-0.84 1.33,-0.51 1.33,-0.97 1.33,-1.23 1.33,-1.07 1.33,-1.28 1.33,-1.57 1.33,-0.73 1.33,-0.82 1.34,-1.41 1.33,-0.73 1.33,-0.96 1.33,-1.09 1.33,-1.53 1.33,-1.48 1.33,-1.11 1.33,-1.18 1.33,-0.58 1.33,-1.62 1.33,-0.79 1.33,-1.42 1.33,-1.23 1.33,-1.18 1.33,-0.98 1.33,-0.87 1.33,-1.75 1.33,-0.73 1.33,-0.48 1.33,-1 1.33,-0.88 1.33,0.69 1.33,-0.34 1.33,-0.33 1.33,-0.1 1.33,-0.15 1.33,-0.54 1.33,0.55 1.33,-0.71 1.33,0.01 1.33,-0.51 1.33,0.37 1.33,0.46 1.33,-0.89 1.33,-0.29 1.33,-0.17 1.33,-0.56 1.33,-0.04 1.33,-0.18 1.33,-0.34 1.34,-0.53 1.33,-0.64 1.33,-0.26 1.33,0.07 1.33,0.07 1.33,-0.24 1.33,-0.26 1.33,-0.02 1.33,-0.12 1.33,-0.02 1.33,-0.05 1.33,-0.77 1.33,0.39 1.33,-0.67 1.33,-0.31 1.33,-0.48 1.33,-0.31 1.33,-1.4 1.33,-0.01 1.33,-0.08 1.33,0.12 1.33,-0.82 1.33,-0.23 1.33,0.31 1.33,-0.16 1.33,-1.01 1.33,0.04 1.33,-0.34 1.33,-0.7 1.33,-0.14 1.33,0.2 1.33,-0.18 1.33,-0.24 1.33,-0.11 1.33,-0.92 1.33,0.15 1.33,0.71 1.33,-1.68 1.33,0.43 1.34,-0.87 1.33,0.03 1.33,0.41 1.33,-0.02 1.33,0.35 1.33,-1.07 1.33,-0.16 1.33,1.18 1.33,-0.76 1.33,-0.09 1.33,-0.21 1.33,-0.24 1.33,-0.84 1.33,0.16 1.33,0.8 1.1,-0.09"
               style="fill:none;stroke:#00cd00;stroke-width:1.5;stroke-linecap:round;stroke-linejoin:round;stroke-miterlimit:10;stroke-opacity:1;stroke-dasharray:none"
               id="path468" /><path
               inkscape:connector-curvature="0"
               d="m 419.59,300.94 1.33,-15.89 1.33,-10.46 1.33,-6.76 1.33,-4.78 1.33,-3.75 1.33,-4.07 1.33,-3.7 1.33,-2.84 1.33,-1.53 1.33,-1.22 1.33,-1.08 1.34,-1.8 1.33,-1.81 1.33,-1.71 1.33,-1.53 1.33,-2.02 1.33,-2.02 1.33,-1.81 1.33,-2.79 1.33,-1.94 1.33,-2.21 1.33,-1.56 1.33,-1.86 1.33,-2.53 1.33,-4.87 1.33,-2.69 1.33,-2.13 1.33,-3.12 1.33,-3.07 1.33,-3.09 1.33,-3.16 1.33,-4.67 1.33,-3.13 1.33,-2.68 1.33,-3.87 1.33,-0.72 1.33,-5.02 1.33,-1.94 1.33,1.66 1.33,-1.76 1.33,-0.51 1.33,-4.99 1.33,-3.61 1.33,1.41 1.33,-2.98 1.33,-5.69 1.33,1.74 1.33,2.07 1.33,-1.96 1.33,0.5 1.33,-19.57 1.34,-2.06 1.33,-0.64 1.33,3.71 1.33,-8.42 1.33,8.53 1.33,4.47 1.33,-11.15 1.33,4.32 1.33,4.33 1.33,-11.74 1.33,5.9 1.33,6.34 1.33,-8.17 1.33,-4.3 1.33,-4.46 1.33,0.97 1.33,-5.04 1.33,0.9 1.33,-0.3 1.33,1.92 1.33,0.62 1.33,9.29 1.33,13.85 1.33,-1.98 1.33,-9.22 1.33,8.85 1.33,-16.72 1.33,0.68 1.33,8.11 1.33,-13.23 1.33,6.29 1.33,-8.76 1.33,10.69 1.33,-5.95 1.33,-0.97 1.33,1.87 1.33,-6.1 1.33,8.29 1.33,11.27 1.33,7.04 1.34,-2.38 1.33,-10.91 1.33,-7.12 1.33,-14.72 1.33,-2.06 1.33,-0.77 1.33,-4.22 1.33,-0.57 1.33,0.57 1.33,-1.18 1.33,2.25 1.33,0 1.33,-8.53 1.33,4.28 1.33,-2.39 1.33,5 1.33,-7.97 1.33,0 1.33,16.79 1.33,-7.7 1.33,-3.02 1.33,0.66 1.33,-12.29 1.33,17.07 1.33,-15.43 1.33,9.99 1.33,2.47 1.33,-3.92 1.33,0.74 1.33,4.75 1.33,-12.58 1.33,7.09 1.33,-2.56 1.33,-5.98 1.33,13.01 1.33,-3.73 1.33,2.61 1.33,-23.96 1.33,18.96 1.33,-15.42 1.34,6.89 1.33,-1.9 1.33,14.19 1.33,-12.29 1.33,0 1.33,-4.14 1.33,0 1.33,10.78 1.33,-22.06 1.33,17.06 1.33,5.98 1.33,-5.98 1.33,-1.64 1.33,-10.43 1.33,8.53 1.33,7.46 1.33,6.73 1.33,-14.19 1.33,0 1.33,6.29 1.33,-19.81 1.33,4.99 1.33,13.52 1.33,7.83 1.33,-1.54 1.33,-16.27 1.33,-8.53 1.33,4.99 1.33,-4.99 1.33,8.53 1.33,0 1.33,9.98 1.33,-9.98 1.33,4.99 1.33,0 1.33,-8.53 1.33,0 1.33,10.43 2.66,-23.95 1.34,13.52 1.33,-13.52 1.33,0 1.33,8.53 1.33,15.42 1.33,0 2.66,1.64 1.33,12.46 1.33,-20.99 1.33,0 1.33,6.89 1.33,-6.89 1.33,0 1.33,2.75 1.33,-19.81 1.33,23.95 1.33,-4.14 1.33,-2.75 1.33,-8.53 1.33,0 1.33,-8.53 1.33,8.53 1.33,4.99 1.33,3.54 1.33,-8.53 1.33,0 1.33,4.99 3.99,-13.52 2.66,0 3.99,23.95 1.33,-23.95 1.33,0 1.33,22.05 5.33,-4.99 1.33,-17.06 1.33,19.81 1.33,-2.75 2.66,-8.53 3.99,-8.53 2.66,0 2.43,0"
               style="fill:none;stroke:#ff0000;stroke-width:1.5;stroke-linecap:round;stroke-linejoin:round;stroke-miterlimit:10;stroke-opacity:1;stroke-dasharray:4.5, 7.5;stroke-dashoffset:0"
               id="path470" /></g></g></g></g><g
       id="g3917"
       transform="translate(0,0.425148)"><g
         transform="translate(433.95729,-38.830907)"
         id="g3912"><text
           style="font-size:12px"
           id="text88-3"
           x="141.05786"
           y="-756.71576"
           transform="scale(1,-1)"><tspan
             style="font-size:10px;font-variant:normal;font-weight:normal;writing-mode:lr-tb;fill:#000000;fill-opacity:1;fill-rule:nonzero;stroke:none;font-family:Helvetica;-inkscape-font-specification:Helvetica"
             sodipodi:role="line"
             id="tspan90-5"
             x="141.05786"
             y="-756.71576">Untrusted k-Mer Spectra</tspan></text>
<path
           style="fill:#00cd00;fill-opacity:1;stroke:#ff0000;stroke-width:2;stroke-linecap:round;stroke-linejoin:miter;stroke-miterlimit:4;stroke-opacity:1;stroke-dasharray:4, 8;stroke-dashoffset:0"
           d="m 85.289506,759.36074 52.418354,0"
           id="path4617"
           inkscape:connector-curvature="0" /></g><g
         transform="translate(-56.348863,-64.178929)"
         id="g3796"><path
           style="fill:#ff0000;fill-opacity:1;stroke:#00cd00;stroke-width:2;stroke-linecap:round;stroke-linejoin:miter;stroke-miterlimit:4;stroke-opacity:1;stroke-dasharray:none;stroke-dashoffset:0"
           d="m 339.90736,785.24804 52.41834,0"
           id="path4617-7"
           inkscape:connector-curvature="0" /><text
           style="font-size:12px"
           id="text88-3-6"
           x="397.91571"
           y="-782.69305"
           transform="scale(1,-1)"><tspan
             style="font-size:10px;font-variant:normal;font-weight:normal;writing-mode:lr-tb;fill:#000000;fill-opacity:1;fill-rule:nonzero;stroke:none;font-family:Helvetica;-inkscape-font-specification:Helvetica"
             sodipodi:role="line"
             id="tspan90-5-3"
             x="397.91571"
             y="-782.69305">Trusted k-Mer Spectra</tspan></text>
</g><g
         transform="translate(-240.26094,-4.3145499)"
         id="g3791"><path
           style="fill:#000000;fill-opacity:1;stroke:#000000;stroke-width:2;stroke-linecap:round;stroke-linejoin:miter;stroke-miterlimit:4;stroke-opacity:1;stroke-dasharray:none;stroke-dashoffset:0"
           d="m 289.88594,724.75434 52.41834,0"
           id="path4617-7-1"
           inkscape:connector-curvature="0" /><text
           style="font-size:12px"
           id="text88-3-6-1"
           x="347.89429"
           y="-722.1994"
           transform="scale(1,-1)"><tspan
             style="font-size:10px;font-variant:normal;font-weight:normal;writing-mode:lr-tb;fill:#000000;fill-opacity:1;fill-rule:nonzero;stroke:none;font-family:Helvetica;-inkscape-font-specification:Helvetica"
             sodipodi:role="line"
             id="tspan90-5-3-1"
             x="347.89429"
             y="-722.1994">Total k-Mer Spectra</tspan></text>
</g></g></g></svg>